<svg width="40" height="40" viewBox="0 0 40 40" fill="none" xmlns="http://www.w3.org/2000/svg">
<rect width="40" height="40" rx="6.66667" fill="url(#paint0_linear_23415_167)"/>
<path d="M22.5003 25.8334C22.5003 27.2141 21.381 28.3334 20.0003 28.3334C18.6195 28.3334 17.5003 27.2141 17.5003 25.8334M21.4973 15.1989C21.8603 14.8239 22.0836 14.3131 22.0836 13.7501C22.0836 12.5995 21.1508 11.6667 20.0003 11.6667C18.8497 11.6667 17.9169 12.5995 17.9169 13.7501C17.9169 14.3131 18.1403 14.8239 18.5032 15.1989M25.0003 19.3334C25.0003 18.1841 24.4735 17.0819 23.5358 16.2693C22.5981 15.4566 21.3263 15.0001 20.0003 15.0001C18.6742 15.0001 17.4024 15.4566 16.4647 16.2693C15.527 17.0819 15.0003 18.1841 15.0003 19.3334C15.0003 21.2349 14.5287 22.6256 13.9403 23.6206C13.2697 24.7548 12.9344 25.3218 12.9476 25.4573C12.9628 25.6123 12.9907 25.6612 13.1164 25.7531C13.2262 25.8334 13.7782 25.8334 14.8821 25.8334H25.1184C26.2223 25.8334 26.7743 25.8334 26.8841 25.7531C27.0098 25.6612 27.0377 25.6123 27.0529 25.4573C27.0661 25.3218 26.7308 24.7548 26.0602 23.6206C25.4718 22.6256 25.0003 21.2349 25.0003 19.3334Z" stroke="url(#paint1_linear_23415_167)" stroke-width="1.66667" stroke-linecap="round" stroke-linejoin="round"/>
<defs>
<linearGradient id="paint0_linear_23415_167" x1="0" y1="20" x2="40" y2="20" gradientUnits="userSpaceOnUse">
<stop stop-color="#DBEAFE"/>
<stop offset="1" stop-color="#F3E8FF"/>
</linearGradient>
<linearGradient id="paint1_linear_23415_167" x1="27.0532" y1="15.0401" x2="11.1427" y2="17.6478" gradientUnits="userSpaceOnUse">
<stop stop-color="#FE5D39"/>
<stop offset="0.48" stop-color="#FF2380"/>
<stop offset="1" stop-color="#DF64CC"/>
</linearGradient>
</defs>
</svg>
