<svg xmlns="http://www.w3.org/2000/svg" width="20" height="14" viewBox="0 0 20 14" fill="none">
  <path d="M18.3333 5.33341H1.66667M1.66667 3.83341L1.66667 10.1667C1.66667 11.1002 1.66667 11.5669 1.84832 11.9234C2.00811 12.237 2.26308 12.492 2.57668 12.6518C2.9332 12.8334 3.39991 12.8334 4.33333 12.8334L15.6667 12.8334C16.6001 12.8334 17.0668 12.8334 17.4233 12.6518C17.7369 12.492 17.9919 12.237 18.1517 11.9234C18.3333 11.5669 18.3333 11.1002 18.3333 10.1667V3.83342C18.3333 2.89999 18.3333 2.43328 18.1517 2.07677C17.9919 1.76316 17.7369 1.50819 17.4233 1.34841C17.0668 1.16675 16.6001 1.16675 15.6667 1.16675L4.33334 1.16675C3.39991 1.16675 2.9332 1.16675 2.57668 1.3484C2.26308 1.50819 2.00811 1.76316 1.84832 2.07676C1.66667 2.43328 1.66667 2.89999 1.66667 3.83341Z" stroke="#374151" stroke-width="2" stroke-linecap="round" stroke-linejoin="round"/>
</svg>