<svg width="40" height="40" viewBox="0 0 40 40" fill="none" xmlns="http://www.w3.org/2000/svg">
<rect width="40" height="40" rx="6.66667" fill="url(#paint0_linear_23410_1398)"/>
<path d="M16.25 18.75H16.2583M20 18.75H20.0083M23.75 18.75H23.7583M15.8333 25V26.9463C15.8333 27.3903 15.8333 27.6123 15.9244 27.7263C16.0035 27.8255 16.1236 27.8832 16.2504 27.8831C16.3964 27.8829 16.5697 27.7442 16.9165 27.4668L18.9043 25.8765C19.3104 25.5517 19.5135 25.3892 19.7396 25.2737C19.9402 25.1712 20.1537 25.0963 20.3743 25.051C20.6231 25 20.8831 25 21.4031 25H23.5C24.9001 25 25.6002 25 26.135 24.7275C26.6054 24.4878 26.9878 24.1054 27.2275 23.635C27.5 23.1002 27.5 22.4001 27.5 21V16.5C27.5 15.0999 27.5 14.3998 27.2275 13.865C26.9878 13.3946 26.6054 13.0122 26.135 12.7725C25.6002 12.5 24.9001 12.5 23.5 12.5H16.5C15.0999 12.5 14.3998 12.5 13.865 12.7725C13.3946 13.0122 13.0122 13.3946 12.7725 13.865C12.5 14.3998 12.5 15.0999 12.5 16.5V21.6667C12.5 22.4416 12.5 22.8291 12.5852 23.147C12.8164 24.0098 13.4902 24.6836 14.353 24.9148C14.6709 25 15.0584 25 15.8333 25ZM16.6667 18.75C16.6667 18.9801 16.4801 19.1667 16.25 19.1667C16.0199 19.1667 15.8333 18.9801 15.8333 18.75C15.8333 18.5199 16.0199 18.3333 16.25 18.3333C16.4801 18.3333 16.6667 18.5199 16.6667 18.75ZM20.4167 18.75C20.4167 18.9801 20.2301 19.1667 20 19.1667C19.7699 19.1667 19.5833 18.9801 19.5833 18.75C19.5833 18.5199 19.7699 18.3333 20 18.3333C20.2301 18.3333 20.4167 18.5199 20.4167 18.75ZM24.1667 18.75C24.1667 18.9801 23.9801 19.1667 23.75 19.1667C23.5199 19.1667 23.3333 18.9801 23.3333 18.75C23.3333 18.5199 23.5199 18.3333 23.75 18.3333C23.9801 18.3333 24.1667 18.5199 24.1667 18.75Z" stroke="url(#paint1_linear_23410_1398)" stroke-width="1.66667" stroke-linecap="round" stroke-linejoin="round"/>
<defs>
<linearGradient id="paint0_linear_23410_1398" x1="0" y1="20" x2="40" y2="20" gradientUnits="userSpaceOnUse">
<stop stop-color="#DBEAFE"/>
<stop offset="1" stop-color="#F3E8FF"/>
</linearGradient>
<linearGradient id="paint1_linear_23410_1398" x1="27.5" y1="15.6135" x2="10.7248" y2="18.7811" gradientUnits="userSpaceOnUse">
<stop stop-color="#FE5D39"/>
<stop offset="0.48" stop-color="#FF2380"/>
<stop offset="1" stop-color="#DF64CC"/>
</linearGradient>
</defs>
</svg>
