<svg width="20" height="20" viewBox="0 0 20 20" fill="none" xmlns="http://www.w3.org/2000/svg">
<g clip-path="url(#clip0_22457_419)">
<path d="M2.45579 3.16641C2.59259 3.16641 2.71707 3.08662 2.77426 2.96215C2.83145 2.83767 2.81107 2.69144 2.72187 2.58734L0.617885 0.132697C0.538096 0.03219 0.409679 -0.0167796 0.283146 0.00513685C0.156612 0.0272245 0.0521669 0.116603 0.0110736 0.23817C-0.0301912 0.35991 -0.00159693 0.494319 0.0855551 0.588663L2.18954 3.04331C2.25597 3.12121 2.35322 3.16624 2.45579 3.16641Z" fill="#AEADB3"/>
<path d="M1.75446 4.56907C1.91729 4.56924 2.05889 4.45743 2.09639 4.29905C2.13372 4.1405 2.05718 3.97716 1.91147 3.90456L0.508816 3.20323C0.335539 3.11659 0.124764 3.18696 0.0382969 3.36024C-0.0483415 3.53369 0.0220308 3.74429 0.195308 3.83093L1.59796 4.53226C1.64659 4.5564 1.70018 4.56907 1.75446 4.56907Z" fill="#AEADB3"/>
<path d="M3.85841 2.81575C3.90293 2.81558 3.94727 2.80719 3.98871 2.79075C4.16866 2.71884 4.25599 2.51474 4.18407 2.33496L3.48275 0.581643C3.41066 0.401689 3.20639 0.314194 3.02661 0.386279C2.84666 0.458363 2.75916 0.662632 2.83125 0.842586L3.53257 2.5959C3.58599 2.72877 3.7151 2.81592 3.85841 2.81575Z" fill="#AEADB3"/>
<path d="M7.79876 4.69526L9.38839 6.28489C8.94955 5.84707 8.94852 5.13633 9.38633 4.69749C9.82415 4.25864 10.5349 4.25779 10.9737 4.6956L13.3845 7.10641C13.3642 7.08569 13.6767 7.39852 14.6769 8.39897C14.3903 8.11234 14.2321 7.72161 14.2386 7.31616C14.2453 6.91088 14.4162 6.52546 14.712 6.24842C15.0074 5.98422 15.4584 5.9998 15.7349 6.28335L16.7932 7.33928L18.2685 8.8159C20.4055 10.951 20.6017 14.4332 18.568 16.667C17.5367 17.8051 16.0837 18.4703 14.5482 18.5074C13.0127 18.5446 11.5292 17.9503 10.4441 16.8633L5.68177 12.1027C5.24001 11.678 5.20234 10.9841 5.59547 10.5141C5.80128 10.2848 6.09253 10.1502 6.40056 10.1418C6.70859 10.1336 7.00651 10.2523 7.22431 10.4702L5.72663 8.97291C5.28487 8.54845 5.2472 7.85431 5.6405 7.38448C5.84631 7.15504 6.13739 7.02046 6.44542 7.01224C6.75345 7.00385 7.05137 7.12268 7.26917 7.34064L6.25588 6.32718C5.81395 5.90289 5.77628 5.20876 6.16958 4.73909C6.37539 4.50965 6.66664 4.3749 6.97467 4.36668C7.28287 4.35829 7.58079 4.47712 7.79876 4.69526Z" fill="#FEC000"/>
<path d="M9.39607 6.78828L13.1063 10.4987C13.245 10.623 13.4563 10.6173 13.5881 10.486C13.7198 10.3545 13.7259 10.1432 13.6021 10.0044L9.89175 6.2926C9.75426 6.15956 9.53561 6.16161 9.40035 6.29688C9.26508 6.43197 9.26303 6.65079 9.39607 6.78828Z" fill="#D9A600"/>
<path d="M7.23233 10.9738L9.93251 13.674C10.0702 13.8069 10.2888 13.805 10.4241 13.6697C10.5594 13.5344 10.5612 13.3158 10.4284 13.1781L7.72819 10.478C7.5907 10.3451 7.37188 10.347 7.23662 10.4822C7.10135 10.6175 7.09947 10.8363 7.23233 10.9738Z" fill="#D9A600"/>
<path d="M7.27737 7.84421L11.5203 12.0873C11.6572 12.2242 11.8793 12.2242 12.0163 12.0874C12.1534 11.9505 12.1534 11.7284 12.0165 11.5914L7.7734 7.34835C7.63659 7.21137 7.41452 7.2112 7.27754 7.34818C7.14039 7.48515 7.14039 7.70723 7.27737 7.84421Z" fill="#D9A600"/>
<path d="M14.6848 8.90253L16.81 11.0279C16.9475 11.1647 17.1699 11.1644 17.3067 11.0271C17.4437 10.8896 17.4433 10.6672 17.3059 10.5303L15.1805 8.4053C15.043 8.27244 14.8242 8.27432 14.6889 8.40958C14.5536 8.54485 14.5517 8.7635 14.6848 8.90116V8.90253Z" fill="#D9A600"/>
<path d="M4.22997 6.18524L5.8196 7.77469C5.38076 7.33688 5.3799 6.62613 5.81789 6.18729C6.25571 5.74845 6.96645 5.74776 7.40529 6.18558L9.8161 8.59639C9.79539 8.57601 10.1082 8.88849 11.1083 9.88895C10.8217 9.60232 10.6635 9.21159 10.6702 8.80614C10.6767 8.40085 10.8475 8.01543 11.1434 7.73822C11.4388 7.47437 11.8896 7.48995 12.1663 7.77332L13.2246 8.83165L14.7002 10.3059C16.8367 12.4427 17.0335 15.9232 14.9997 18.1583C13.9681 19.2961 12.5153 19.9613 10.9799 19.9984C9.44438 20.0354 7.96108 19.4413 6.87587 18.3547L2.11384 13.5927C1.67191 13.1682 1.63407 12.4741 2.0272 12.0041C2.23301 11.7748 2.52409 11.6402 2.83212 11.6318C3.14032 11.6236 3.43807 11.7423 3.65604 11.9602L2.1587 10.4629C1.71677 10.0386 1.67893 9.34446 2.07206 8.87445C2.27787 8.64502 2.56895 8.51043 2.87698 8.50222C3.18518 8.49383 3.4831 8.61265 3.7009 8.83062L2.68778 7.81716C2.24568 7.39304 2.20784 6.69873 2.60114 6.22907C2.80712 5.99963 3.0982 5.86505 3.40622 5.85683C3.71425 5.84844 4.01218 5.96727 4.22997 6.18524Z" fill="#FFE670"/>
<path d="M5.82764 8.27826L9.53906 11.9886C9.67604 12.1258 9.89811 12.1258 10.0351 11.9888C10.1721 11.852 10.1722 11.6299 10.0353 11.4928L6.3235 7.78257C6.18584 7.64953 5.96719 7.65141 5.83192 7.78668C5.69666 7.92194 5.69477 8.14076 5.82764 8.27826Z" fill="#EBB300"/>
<path d="M3.66375 12.4641L6.36393 15.1643C6.50211 15.2937 6.71802 15.29 6.85174 15.1561C6.98547 15.022 6.98872 14.8061 6.85893 14.6681L4.15893 11.9679C4.02178 11.8309 3.7997 11.8309 3.66273 11.9679C3.52575 12.1051 3.52575 12.3272 3.66273 12.4641H3.66375Z" fill="#EBB300"/>
<path d="M3.70895 9.33418L7.95201 13.5772C8.08899 13.714 8.31107 13.714 8.44805 13.5771C8.58485 13.4399 8.58485 13.2178 8.44787 13.081L4.20481 8.83798C4.1168 8.74689 3.98633 8.71025 3.86374 8.74244C3.74114 8.77446 3.64543 8.87017 3.61341 8.99277C3.58122 9.11536 3.61786 9.24583 3.70895 9.33384V9.33418Z" fill="#EBB300"/>
<path d="M11.1171 10.3925L13.2421 12.5179C13.3798 12.6508 13.5984 12.6489 13.7337 12.5136C13.869 12.3783 13.8708 12.1595 13.738 12.022L11.6129 9.89665C11.4753 9.76378 11.2566 9.76567 11.1214 9.90093C10.9861 10.0362 10.9842 10.2548 11.1171 10.3925Z" fill="#EBB300"/>
</g>
<defs>
<clipPath id="clip0_22457_419">
<rect width="20" height="20" fill="white" transform="matrix(-1 0 0 1 20 0)"/>
</clipPath>
</defs>
</svg>
