<svg width="64" height="64" viewBox="0 0 64 64" fill="none" xmlns="http://www.w3.org/2000/svg">
<rect width="64" height="64" rx="10.6667" fill="#FFE9E4"/>
<path d="M42.6668 32.6665V25.0665C42.6668 22.8263 42.6668 21.7062 42.2309 20.8505C41.8474 20.0979 41.2354 19.486 40.4828 19.1025C39.6271 18.6665 38.507 18.6665 36.2668 18.6665H27.7335C25.4933 18.6665 24.3732 18.6665 23.5175 19.1025C22.7649 19.486 22.153 20.0979 21.7695 20.8505C21.3335 21.7062 21.3335 22.8263 21.3335 25.0665V38.9332C21.3335 41.1734 21.3335 42.2935 21.7695 43.1491C22.153 43.9018 22.7649 44.5137 23.5175 44.8972C24.3732 45.3332 25.4933 45.3332 27.7335 45.3332H32.0002M34.6668 30.6665H26.6668M29.3335 35.9998H26.6668M37.3335 25.3332H26.6668M35.3335 41.3332L38.0002 43.9998L44.0002 37.9998" stroke="url(#paint0_linear_23348_2938)" stroke-width="2.66667" stroke-linecap="round" stroke-linejoin="round"/>
<defs>
<linearGradient id="paint0_linear_23348_2938" x1="44.0002" y1="24.0638" x2="18.4396" y2="28.2711" gradientUnits="userSpaceOnUse">
<stop stop-color="#FE5D39"/>
<stop offset="0.48" stop-color="#FF2380"/>
<stop offset="1" stop-color="#DF64CC"/>
</linearGradient>
</defs>
</svg>
