<svg width="645" height="500" viewBox="0 0 645 500" fill="none" xmlns="http://www.w3.org/2000/svg">
<g clip-path="url(#clip0_23348_2551)">
<path d="M0 16C0 7.16345 7.16344 0 16 0H629C637.837 0 645 7.16344 645 16V484C645 492.837 637.837 500 629 500H16C7.16344 500 0 492.837 0 484V16Z" fill="url(#paint0_linear_23348_2551)"/>
<path d="M40 71.9224C40 63.6837 46.6788 57.0049 54.9175 57.0049H461.419C469.658 57.0049 476.337 63.6837 476.337 71.9224V389.851C476.337 398.09 469.658 404.769 461.419 404.769H54.9175C46.6788 404.769 40 398.09 40 389.851V71.9224Z" fill="white"/>
<path d="M54.918 57.4707H461.419C469.4 57.4707 475.87 63.9416 475.87 71.9229V389.852C475.87 397.833 469.4 404.303 461.419 404.303H54.917C46.936 404.302 40.4659 397.833 40.4658 389.852V71.9229C40.4658 63.9416 46.9367 57.4707 54.918 57.4707Z" stroke="white" stroke-opacity="0.1" stroke-width="0.932343"/>
<path d="M75.1304 101.675L73.676 100.221C73.3851 100.467 73.0271 100.669 72.6467 100.848C71.9978 101.183 71.0356 101.452 69.872 101.452C66.1799 101.452 63.0473 98.3191 63.0473 94.2913C63.0473 90.2636 66.1799 87.1309 69.872 87.1309C73.5641 87.1309 76.6968 90.2636 76.6968 94.2913C76.6968 95.6339 76.3164 96.7527 75.9584 97.5359C75.757 98.0058 75.5108 98.4086 75.2423 98.7666L76.5849 100.109L75.1304 101.675ZM70.3195 96.9765L71.774 95.4101L73.3403 96.8646C73.4522 96.6632 73.5641 96.4394 73.676 96.1709C73.8326 95.7234 74.0116 95.0745 74.0116 94.2913C74.0116 91.6062 72.1096 89.7042 69.872 89.7042C67.6344 89.7042 65.7324 91.6062 65.7324 94.2913C65.7324 96.9765 67.6344 98.8785 69.872 98.8785C70.4762 98.8785 70.9461 98.7666 71.2817 98.6547C71.4607 98.5876 71.6174 98.5204 71.774 98.4309L70.3195 96.9765ZM78.8208 101.34V87.2428H84.4148C87.1 87.2428 89.1138 89.2567 89.1138 91.6062C89.1138 93.1949 88.3754 94.2018 87.5922 94.8507C87.1447 95.2311 86.6524 95.5444 86.093 95.7458L89.4495 101.34H86.4287L83.5198 96.1933H81.5059V101.34H78.8208ZM81.5059 93.62H84.4148C85.556 93.62 86.4287 92.725 86.4287 91.7181C86.4287 90.7111 85.556 89.8161 84.4148 89.8161H81.5059V93.62ZM105.99 96.4171H108.787C108.138 99.1022 105.743 101.452 102.409 101.452C98.7173 101.452 95.5846 98.3191 95.5846 94.2913C95.5846 90.2636 98.7173 87.1309 102.409 87.1309C105.632 87.1309 108.026 89.4804 108.675 92.1656H105.878C105.52 90.9349 104.311 89.7042 102.409 89.7042C100.172 89.7042 98.2697 91.6062 98.2697 94.2913C98.2697 96.9765 100.172 98.8785 102.409 98.8785C104.334 98.8785 105.52 97.6478 105.99 96.4171ZM115.153 93.3963C113.699 93.3963 112.58 94.4927 112.58 96.1933C112.58 97.8939 113.699 98.9903 115.153 98.9903C116.608 98.9903 117.727 97.8939 117.727 96.1933C117.727 94.4927 116.608 93.3963 115.153 93.3963ZM115.153 90.9349C117.928 90.9349 120.3 93.2844 120.3 96.1933C120.3 99.1022 117.928 101.452 115.153 101.452C112.379 101.452 110.007 99.1022 110.007 96.1933C110.007 93.2844 112.379 90.9349 115.153 90.9349ZM129.799 101.34L129.352 100.333C129.106 100.534 128.859 100.736 128.569 100.892C128.054 101.183 127.338 101.452 126.443 101.452C123.87 101.452 121.632 99.2365 121.632 96.1933C121.632 93.1501 123.87 90.9349 126.443 90.9349C127.271 90.9349 127.942 91.2034 128.412 91.4495C128.68 91.6062 128.927 91.7628 129.128 91.9418V87.2428H131.701V101.34H129.799ZM126.778 98.9903C128.233 98.9903 129.352 97.8939 129.352 96.1933C129.352 94.4927 128.233 93.3963 126.778 93.3963C125.324 93.3963 124.205 94.4927 124.205 96.1933C124.205 97.8939 125.324 98.9903 126.778 98.9903ZM140.655 98.2072H143.34C142.803 99.7511 141.08 101.452 138.753 101.452C135.979 101.452 133.607 99.1022 133.607 96.1933C133.607 93.2844 135.979 90.9349 138.753 90.9349C141.438 90.9349 143.676 93.0606 143.676 96.1933C143.676 96.4394 143.631 96.6632 143.609 96.8646L143.564 97.2002H136.404C136.65 98.2072 137.411 98.9903 138.753 98.9903C139.447 98.9903 139.872 98.8113 140.208 98.6099C140.387 98.4981 140.543 98.3638 140.655 98.2072ZM136.292 95.4101H141.215C140.968 94.269 140.096 93.3963 138.753 93.3963C137.411 93.3963 136.538 94.269 136.292 95.4101Z" fill="#181D27"/>
<rect x="364.907" y="80.0801" width="88.354" height="30.519" rx="15.2595" stroke="url(#paint1_linear_23348_2551)" stroke-width="1.39851"/>
<path d="M376.198 90.703H378.002L380.417 96.599H380.513L382.928 90.703H384.732V98.8398H383.318V93.2498H383.242L380.994 98.816H379.937L377.688 93.2378H377.612V98.8398H376.198V90.703ZM388.936 98.959C388.34 98.959 387.823 98.8279 387.386 98.5657C386.949 98.3035 386.61 97.9366 386.369 97.4652C386.131 96.9937 386.012 96.4428 386.012 95.8124C386.012 95.182 386.131 94.6297 386.369 94.1556C386.61 93.6815 386.949 93.3133 387.386 93.0511C387.823 92.7889 388.34 92.6578 388.936 92.6578C389.532 92.6578 390.048 92.7889 390.485 93.0511C390.922 93.3133 391.26 93.6815 391.498 94.1556C391.739 94.6297 391.86 95.182 391.86 95.8124C391.86 96.4428 391.739 96.9937 391.498 97.4652C391.26 97.9366 390.922 98.3035 390.485 98.5657C390.048 98.8279 389.532 98.959 388.936 98.959ZM388.944 97.8068C389.267 97.8068 389.537 97.7181 389.754 97.5407C389.971 97.3605 390.133 97.1195 390.239 96.8176C390.347 96.5156 390.402 96.1792 390.402 95.8084C390.402 95.4349 390.347 95.0972 390.239 94.7953C390.133 94.4907 389.971 94.2483 389.754 94.0682C389.537 93.8881 389.267 93.798 388.944 93.798C388.613 93.798 388.337 93.8881 388.117 94.0682C387.9 94.2483 387.737 94.4907 387.629 94.7953C387.523 95.0972 387.47 95.4349 387.47 95.8084C387.47 96.1792 387.523 96.5156 387.629 96.8176C387.737 97.1195 387.9 97.3605 388.117 97.5407C388.337 97.7181 388.613 97.8068 388.944 97.8068ZM394.519 95.2641V98.8398H393.081V92.7372H394.455V93.7742H394.527C394.667 93.4325 394.891 93.161 395.198 92.9597C395.508 92.7584 395.891 92.6578 396.346 92.6578C396.768 92.6578 397.134 92.7478 397.447 92.9279C397.762 93.1081 398.006 93.3689 398.178 93.7106C398.353 94.0523 398.439 94.4668 398.436 94.9542V98.8398H396.998V95.1767C396.998 94.7688 396.892 94.4496 396.68 94.2192C396.471 93.9887 396.181 93.8735 395.81 93.8735C395.558 93.8735 395.335 93.9291 395.139 94.0404C394.945 94.149 394.793 94.3066 394.682 94.5132C394.573 94.7198 394.519 94.9701 394.519 95.2641ZM402.946 92.7372V93.8497H399.437V92.7372H402.946ZM400.304 91.2752H401.742V97.0043C401.742 97.1976 401.771 97.346 401.829 97.4493C401.89 97.5499 401.97 97.6188 402.068 97.6559C402.166 97.693 402.274 97.7115 402.393 97.7115C402.483 97.7115 402.566 97.7049 402.64 97.6916C402.717 97.6784 402.775 97.6665 402.815 97.6559L403.057 98.7802C402.98 98.8067 402.87 98.8359 402.727 98.8677C402.587 98.8994 402.415 98.918 402.211 98.9233C401.85 98.9339 401.526 98.8796 401.237 98.7604C400.949 98.6385 400.719 98.4505 400.55 98.1962C400.383 97.9419 400.301 97.6241 400.304 97.2427V91.2752ZM405.718 95.2641V98.8398H404.28V90.703H405.686V93.7742H405.758C405.901 93.4299 406.122 93.1584 406.421 92.9597C406.723 92.7584 407.107 92.6578 407.573 92.6578C407.997 92.6578 408.367 92.7465 408.682 92.924C408.997 93.1014 409.241 93.361 409.413 93.7027C409.588 94.0444 409.675 94.4615 409.675 94.9542V98.8398H408.237V95.1767C408.237 94.7661 408.131 94.447 407.919 94.2192C407.71 93.9887 407.416 93.8735 407.037 93.8735C406.783 93.8735 406.555 93.9291 406.354 94.0404C406.155 94.149 405.999 94.3066 405.885 94.5132C405.773 94.7198 405.718 94.9701 405.718 95.2641ZM412.579 90.703V98.8398H411.141V90.703H412.579ZM414.952 101.128C414.756 101.128 414.575 101.112 414.408 101.081C414.244 101.052 414.113 101.017 414.015 100.977L414.348 99.8569C414.558 99.9179 414.744 99.947 414.909 99.9444C415.073 99.9417 415.217 99.8901 415.342 99.7894C415.469 99.6914 415.576 99.5272 415.663 99.2967L415.787 98.967L413.574 92.7372H415.099L416.506 97.346H416.569L417.98 92.7372H419.509L417.066 99.5788C416.952 99.902 416.801 100.179 416.613 100.409C416.425 100.642 416.194 100.82 415.922 100.942C415.651 101.066 415.328 101.128 414.952 101.128Z" fill="#181D27"/>
<path d="M431.584 93.4751L435.313 97.2045L439.043 93.4751" stroke="#85888E" stroke-width="1.55701" stroke-linecap="round" stroke-linejoin="round"/>
<path d="M66.8073 144.064V152.201H65.8219V145.097H65.7743L63.7877 146.416V145.415L65.8219 144.064H66.8073ZM71.8014 152.312C71.2028 152.312 70.6929 152.15 70.2718 151.824C69.8506 151.495 69.5288 151.02 69.3063 150.397C69.0838 149.772 68.9726 149.017 68.9726 148.133C68.9726 147.253 69.0838 146.502 69.3063 145.88C69.5315 145.255 69.8546 144.778 70.2757 144.45C70.6995 144.119 71.2081 143.953 71.8014 143.953C72.3947 143.953 72.9019 144.119 73.3231 144.45C73.7469 144.778 74.07 145.255 74.2925 145.88C74.5176 146.502 74.6302 147.253 74.6302 148.133C74.6302 149.017 74.519 149.772 74.2965 150.397C74.074 151.02 73.7522 151.495 73.331 151.824C72.9099 152.15 72.4 152.312 71.8014 152.312ZM71.8014 151.438C72.3947 151.438 72.8556 151.152 73.184 150.58C73.5125 150.008 73.6767 149.192 73.6767 148.133C73.6767 147.428 73.6012 146.828 73.4502 146.333C73.3019 145.838 73.0873 145.46 72.8066 145.201C72.5285 144.941 72.1934 144.811 71.8014 144.811C71.2134 144.811 70.7538 145.101 70.4227 145.681C70.0917 146.259 69.9261 147.076 69.9261 148.133C69.9261 148.837 70.0003 149.436 70.1486 149.929C70.2969 150.421 70.5101 150.796 70.7883 151.053C71.069 151.31 71.4067 151.438 71.8014 151.438ZM78.794 152.312C78.1954 152.312 77.6855 152.15 77.2643 151.824C76.8432 151.495 76.5214 151.02 76.2989 150.397C76.0764 149.772 75.9652 149.017 75.9652 148.133C75.9652 147.253 76.0764 146.502 76.2989 145.88C76.524 145.255 76.8472 144.778 77.2683 144.45C77.6921 144.119 78.2007 143.953 78.794 143.953C79.3873 143.953 79.8945 144.119 80.3156 144.45C80.7394 144.778 81.0626 145.255 81.2851 145.88C81.5102 146.502 81.6228 147.253 81.6228 148.133C81.6228 149.017 81.5115 149.772 81.289 150.397C81.0666 151.02 80.7447 151.495 80.3236 151.824C79.9024 152.15 79.3926 152.312 78.794 152.312ZM78.794 151.438C79.3873 151.438 79.8481 151.152 80.1766 150.58C80.505 150.008 80.6692 149.192 80.6692 148.133C80.6692 147.428 80.5938 146.828 80.4428 146.333C80.2945 145.838 80.0799 145.46 79.7991 145.201C79.521 144.941 79.186 144.811 78.794 144.811C78.206 144.811 77.7464 145.101 77.4153 145.681C77.0842 146.259 76.9187 147.076 76.9187 148.133C76.9187 148.837 76.9928 149.436 77.1412 149.929C77.2895 150.421 77.5027 150.796 77.7808 151.053C78.0616 151.31 78.3993 151.438 78.794 151.438ZM84.0225 149.976L84.0066 148.816H84.1973L86.8672 146.099H88.0273L85.1826 148.975H85.1032L84.0225 149.976ZM83.1484 152.201V144.064H84.0861V152.201H83.1484ZM87.0261 152.201L84.6423 149.182L85.3098 148.53L88.218 152.201H87.0261Z" fill="#181D27"/>
<path d="M71.852 201.944C71.3064 201.944 70.8244 201.848 70.4059 201.654C69.99 201.458 69.6655 201.189 69.4325 200.848C69.1994 200.503 69.0842 200.111 69.0868 199.672C69.0842 199.327 69.1517 199.009 69.2894 198.718C69.4272 198.424 69.6152 198.179 69.8536 197.983C70.0946 197.784 70.3635 197.659 70.6601 197.606V197.558C70.2708 197.457 69.9609 197.239 69.7304 196.902C69.5 196.563 69.3861 196.178 69.3888 195.746C69.3861 195.333 69.4907 194.964 69.7026 194.638C69.9145 194.312 70.2059 194.055 70.5767 193.867C70.9502 193.679 71.3753 193.585 71.852 193.585C72.3235 193.585 72.7447 193.679 73.1155 193.867C73.4863 194.055 73.7777 194.312 73.9896 194.638C74.2041 194.964 74.3127 195.333 74.3153 195.746C74.3127 196.178 74.1948 196.563 73.9617 196.902C73.7313 197.239 73.4254 197.457 73.044 197.558V197.606C73.338 197.659 73.6028 197.784 73.8386 197.983C74.0743 198.179 74.2624 198.424 74.4027 198.718C74.5431 199.009 74.6146 199.327 74.6173 199.672C74.6146 200.111 74.4955 200.503 74.2597 200.848C74.0266 201.189 73.7022 201.458 73.2863 201.654C72.8731 201.848 72.395 201.944 71.852 201.944ZM71.852 201.07C72.2202 201.07 72.5381 201.011 72.8056 200.891C73.0731 200.772 73.2797 200.604 73.4254 200.387C73.5711 200.17 73.6452 199.915 73.6479 199.624C73.6452 199.317 73.5658 199.045 73.4095 198.81C73.2532 198.574 73.04 198.388 72.7698 198.253C72.5023 198.118 72.1964 198.051 71.852 198.051C71.5051 198.051 71.1952 198.118 70.9224 198.253C70.6522 198.388 70.439 198.574 70.2827 198.81C70.1291 199.045 70.0536 199.317 70.0562 199.624C70.0536 199.915 70.1238 200.17 70.2668 200.387C70.4125 200.604 70.6204 200.772 70.8906 200.891C71.1607 201.011 71.4812 201.07 71.852 201.07ZM71.852 197.208C72.1434 197.208 72.4017 197.15 72.6268 197.034C72.8546 196.917 73.0334 196.754 73.1632 196.545C73.2929 196.336 73.3592 196.091 73.3618 195.81C73.3592 195.534 73.2943 195.295 73.1671 195.091C73.04 194.884 72.8639 194.725 72.6387 194.614C72.4136 194.5 72.1514 194.443 71.852 194.443C71.5474 194.443 71.2813 194.5 71.0535 194.614C70.8257 194.725 70.6495 194.884 70.525 195.091C70.4006 195.295 70.3396 195.534 70.3423 195.81C70.3396 196.091 70.4019 196.336 70.529 196.545C70.6588 196.754 70.8376 196.917 71.0654 197.034C71.2932 197.15 71.5554 197.208 71.852 197.208ZM78.794 201.944C78.1954 201.944 77.6855 201.781 77.2643 201.456C76.8432 201.127 76.5214 200.652 76.2989 200.029C76.0764 199.404 75.9652 198.649 75.9652 197.765C75.9652 196.885 76.0764 196.134 76.2989 195.512C76.524 194.887 76.8472 194.41 77.2683 194.082C77.6921 193.75 78.2007 193.585 78.794 193.585C79.3873 193.585 79.8945 193.75 80.3156 194.082C80.7394 194.41 81.0626 194.887 81.2851 195.512C81.5102 196.134 81.6228 196.885 81.6228 197.765C81.6228 198.649 81.5115 199.404 81.289 200.029C81.0666 200.652 80.7447 201.127 80.3236 201.456C79.9024 201.781 79.3926 201.944 78.794 201.944ZM78.794 201.07C79.3873 201.07 79.8481 200.784 80.1766 200.212C80.505 199.64 80.6692 198.824 80.6692 197.765C80.6692 197.06 80.5938 196.46 80.4428 195.965C80.2945 195.47 80.0799 195.092 79.7991 194.832C79.521 194.573 79.186 194.443 78.794 194.443C78.206 194.443 77.7464 194.733 77.4153 195.313C77.0842 195.891 76.9187 196.708 76.9187 197.765C76.9187 198.469 76.9928 199.068 77.1412 199.56C77.2895 200.053 77.5027 200.428 77.7808 200.685C78.0616 200.942 78.3993 201.07 78.794 201.07ZM84.0225 199.608L84.0066 198.448H84.1973L86.8672 195.73H88.0273L85.1826 198.607H85.1032L84.0225 199.608ZM83.1484 201.833V193.696H84.0861V201.833H83.1484ZM87.0261 201.833L84.6423 198.813L85.3098 198.162L88.218 201.833H87.0261Z" fill="#181D27"/>
<path d="M71.8759 251.577C71.4097 251.577 70.9899 251.484 70.6164 251.298C70.243 251.113 69.9437 250.859 69.7185 250.536C69.4934 250.212 69.3702 249.844 69.349 249.431H70.3026C70.3396 249.799 70.5065 250.104 70.8032 250.345C71.1025 250.583 71.46 250.703 71.8759 250.703C72.2096 250.703 72.5063 250.624 72.7659 250.468C73.0281 250.312 73.2333 250.097 73.3817 249.824C73.5326 249.549 73.6081 249.238 73.6081 248.891C73.6081 248.536 73.53 248.219 73.3737 247.941C73.2201 247.66 73.0082 247.439 72.738 247.278C72.4679 247.116 72.1593 247.034 71.8123 247.031C71.5633 247.029 71.3077 247.067 71.0455 247.147C70.7833 247.223 70.5674 247.323 70.3979 247.445L69.4762 247.333L69.9688 243.329H74.1961V244.203H70.7952L70.5092 246.602H70.5568C70.7237 246.47 70.9329 246.36 71.1846 246.273C71.4362 246.185 71.6984 246.141 71.9712 246.141C72.4692 246.141 72.9129 246.261 73.3022 246.499C73.6942 246.735 74.0015 247.058 74.224 247.468C74.4491 247.879 74.5617 248.348 74.5617 248.875C74.5617 249.394 74.4451 249.858 74.212 250.265C73.9816 250.671 73.6638 250.991 73.2585 251.227C72.8533 251.46 72.3924 251.577 71.8759 251.577ZM78.794 251.577C78.1954 251.577 77.6855 251.414 77.2643 251.088C76.8432 250.759 76.5214 250.284 76.2989 249.662C76.0764 249.036 75.9652 248.282 75.9652 247.397C75.9652 246.518 76.0764 245.767 76.2989 245.144C76.524 244.519 76.8472 244.042 77.2683 243.714C77.6921 243.383 78.2007 243.217 78.794 243.217C79.3873 243.217 79.8945 243.383 80.3156 243.714C80.7394 244.042 81.0626 244.519 81.2851 245.144C81.5102 245.767 81.6228 246.518 81.6228 247.397C81.6228 248.282 81.5115 249.036 81.289 249.662C81.0666 250.284 80.7447 250.759 80.3236 251.088C79.9024 251.414 79.3926 251.577 78.794 251.577ZM78.794 250.703C79.3873 250.703 79.8481 250.416 80.1766 249.844C80.505 249.272 80.6692 248.456 80.6692 247.397C80.6692 246.692 80.5938 246.092 80.4428 245.597C80.2945 245.102 80.0799 244.724 79.7991 244.465C79.521 244.205 79.186 244.075 78.794 244.075C78.206 244.075 77.7464 244.365 77.4153 244.946C77.0842 245.523 76.9187 246.34 76.9187 247.397C76.9187 248.101 76.9928 248.7 77.1412 249.193C77.2895 249.685 77.5027 250.06 77.7808 250.317C78.0616 250.574 78.3993 250.703 78.794 250.703ZM84.0225 249.24L84.0066 248.08H84.1973L86.8672 245.363H88.0273L85.1826 248.239H85.1032L84.0225 249.24ZM83.1484 251.465V243.329H84.0861V251.465H83.1484ZM87.0261 251.465L84.6423 248.446L85.3098 247.794L88.218 251.465H87.0261Z" fill="#181D27"/>
<path d="M69.5516 301.097V300.382L72.2374 297.442C72.5526 297.098 72.8122 296.798 73.0162 296.544C73.2201 296.287 73.3711 296.046 73.4691 295.821C73.5697 295.593 73.6201 295.355 73.6201 295.106C73.6201 294.82 73.5512 294.572 73.4135 294.363C73.2784 294.154 73.093 293.992 72.8572 293.878C72.6215 293.764 72.3566 293.707 72.0626 293.707C71.7501 293.707 71.4773 293.772 71.2442 293.902C71.0137 294.029 70.8349 294.208 70.7078 294.438C70.5833 294.669 70.5211 294.939 70.5211 295.249H69.5834C69.5834 294.772 69.6934 294.354 69.9132 293.993C70.133 293.633 70.4323 293.352 70.8111 293.151C71.1925 292.95 71.6203 292.849 72.0944 292.849C72.5712 292.849 72.9936 292.95 73.3618 293.151C73.73 293.352 74.0187 293.624 74.2279 293.966C74.4372 294.307 74.5418 294.687 74.5418 295.106C74.5418 295.405 74.4875 295.698 74.3789 295.984C74.273 296.267 74.0876 296.584 73.8227 296.933C73.5605 297.28 73.1963 297.704 72.7301 298.205L70.9025 300.16V300.223H74.6848V301.097H69.5516ZM78.8685 301.208C78.4023 301.208 77.9825 301.116 77.609 300.93C77.2355 300.745 76.9362 300.491 76.7111 300.167C76.486 299.844 76.3628 299.476 76.3416 299.063H77.2951C77.3322 299.431 77.4991 299.736 77.7957 299.977C78.095 300.215 78.4526 300.334 78.8685 300.334C79.2022 300.334 79.4989 300.256 79.7584 300.1C80.0206 299.944 80.2259 299.729 80.3742 299.456C80.5252 299.181 80.6007 298.87 80.6007 298.523C80.6007 298.168 80.5226 297.851 80.3663 297.573C80.2127 297.292 80.0008 297.071 79.7306 296.91C79.4604 296.748 79.1519 296.666 78.8049 296.663C78.5559 296.661 78.3003 296.699 78.0381 296.778C77.7759 296.855 77.56 296.955 77.3905 297.076L76.4687 296.965L76.9614 292.96H81.1887V293.834H77.7878L77.5017 296.234H77.5494C77.7163 296.102 77.9255 295.992 78.1771 295.904C78.4288 295.817 78.691 295.773 78.9638 295.773C79.4618 295.773 79.9054 295.892 80.2948 296.131C80.6868 296.367 80.994 296.69 81.2165 297.1C81.4417 297.511 81.5542 297.98 81.5542 298.507C81.5542 299.026 81.4377 299.489 81.2046 299.897C80.9742 300.303 80.6563 300.623 80.2511 300.859C79.8458 301.092 79.385 301.208 78.8685 301.208ZM84.0225 298.872L84.0066 297.712H84.1973L86.8672 294.995H88.0273L85.1826 297.871H85.1032L84.0225 298.872ZM83.1484 301.097V292.96H84.0861V301.097H83.1484ZM87.0261 301.097L84.6423 298.078L85.3098 297.426L88.218 301.097H87.0261Z" fill="#181D27"/>
<path d="M75.7893 350.84C75.1907 350.84 74.6809 350.677 74.2597 350.352C73.8386 350.023 73.5168 349.548 73.2943 348.925C73.0718 348.3 72.9605 347.545 72.9605 346.661C72.9605 345.781 73.0718 345.03 73.2943 344.408C73.5194 343.783 73.8425 343.306 74.2637 342.978C74.6875 342.646 75.196 342.481 75.7893 342.481C76.3827 342.481 76.8899 342.646 77.311 342.978C77.7348 343.306 78.058 343.783 78.2804 344.408C78.5056 345.03 78.6182 345.781 78.6182 346.661C78.6182 347.545 78.5069 348.3 78.2844 348.925C78.0619 349.548 77.7401 350.023 77.319 350.352C76.8978 350.677 76.388 350.84 75.7893 350.84ZM75.7893 349.966C76.3827 349.966 76.8435 349.68 77.172 349.108C77.5004 348.536 77.6646 347.72 77.6646 346.661C77.6646 345.956 77.5891 345.356 77.4382 344.861C77.2898 344.365 77.0753 343.988 76.7945 343.728C76.5164 343.469 76.1814 343.339 75.7893 343.339C75.2013 343.339 74.7418 343.629 74.4107 344.209C74.0796 344.787 73.9141 345.604 73.9141 346.661C73.9141 347.365 73.9882 347.964 74.1366 348.456C74.2849 348.949 74.4981 349.324 74.7762 349.581C75.057 349.838 75.3947 349.966 75.7893 349.966ZM84.2758 349.203V348.774C84.2758 348.478 84.3367 348.206 84.4585 347.96C84.583 347.711 84.7631 347.512 84.9989 347.364C85.2373 347.213 85.526 347.137 85.865 347.137C86.2093 347.137 86.498 347.213 86.7311 347.364C86.9642 347.512 87.1404 347.711 87.2595 347.96C87.3787 348.206 87.4383 348.478 87.4383 348.774V349.203C87.4383 349.5 87.3774 349.773 87.2556 350.022C87.1364 350.268 86.9589 350.467 86.7232 350.618C86.4901 350.766 86.204 350.84 85.865 350.84C85.5207 350.84 85.2306 350.766 84.9949 350.618C84.7592 350.467 84.5804 350.268 84.4585 350.022C84.3367 349.773 84.2758 349.5 84.2758 349.203ZM85.0863 348.774V349.203C85.0863 349.45 85.1446 349.671 85.2611 349.867C85.3776 350.06 85.5789 350.157 85.865 350.157C86.1431 350.157 86.3391 350.06 86.453 349.867C86.5696 349.671 86.6278 349.45 86.6278 349.203V348.774C86.6278 348.528 86.5722 348.308 86.461 348.115C86.3497 347.919 86.1511 347.821 85.865 347.821C85.5869 347.821 85.3869 347.919 85.2651 348.115C85.1459 348.308 85.0863 348.528 85.0863 348.774ZM80.2233 344.547V344.118C80.2233 343.821 80.2842 343.55 80.406 343.303C80.5305 343.054 80.7106 342.856 80.9464 342.707C81.1847 342.556 81.4735 342.481 81.8125 342.481C82.1568 342.481 82.4455 342.556 82.6786 342.707C82.9117 342.856 83.0878 343.054 83.207 343.303C83.3262 343.55 83.3858 343.821 83.3858 344.118V344.547C83.3858 344.844 83.3249 345.116 83.2031 345.365C83.0839 345.612 82.9064 345.81 82.6707 345.961C82.4376 346.11 82.1515 346.184 81.8125 346.184C81.4682 346.184 81.1781 346.11 80.9424 345.961C80.7067 345.81 80.5279 345.612 80.406 345.365C80.2842 345.116 80.2233 344.844 80.2233 344.547ZM81.0338 344.118V344.547C81.0338 344.793 81.092 345.014 81.2086 345.21C81.3251 345.404 81.5264 345.5 81.8125 345.5C82.0906 345.5 82.2866 345.404 82.4005 345.21C82.517 345.014 82.5753 344.793 82.5753 344.547V344.118C82.5753 343.872 82.5197 343.652 82.4085 343.458C82.2972 343.262 82.0986 343.164 81.8125 343.164C81.5344 343.164 81.3344 343.262 81.2126 343.458C81.0934 343.652 81.0338 343.872 81.0338 344.118ZM80.5252 350.729L86.1193 342.592H87.0251L81.4311 350.729H80.5252Z" fill="#181D27"/>
<line x1="107.521" y1="149.273" x2="452.451" y2="149.273" stroke="#CECFD2" stroke-width="0.932343" stroke-linecap="round" stroke-dasharray="4.97 8.69"/>
<line x1="107.521" y1="198.687" x2="452.451" y2="198.687" stroke="#CECFD2" stroke-width="0.932343" stroke-linecap="round" stroke-dasharray="4.97 8.69"/>
<line x1="107.521" y1="248.101" x2="452.451" y2="248.101" stroke="#CECFD2" stroke-width="0.932343" stroke-linecap="round" stroke-dasharray="4.97 8.69"/>
<line x1="107.594" y1="297.301" x2="452.524" y2="297.301" stroke="#CECFD2" stroke-width="0.932343" stroke-linecap="round" stroke-dasharray="4.97 8.69"/>
<path d="M106.841 345.606L453.028 346.016" stroke="#F0F0F1" stroke-width="0.932343"/>
<path d="M107.128 288.443C107.128 286.384 108.798 284.714 110.857 284.714H114.587C116.646 284.714 118.316 286.384 118.316 288.443V345.316H107.128V288.443Z" fill="url(#paint2_linear_23348_2551)"/>
<path d="M122.045 242.759C122.045 240.699 123.715 239.029 125.774 239.029H129.504C131.563 239.029 133.233 240.699 133.233 242.759V345.316H122.045V242.759Z" fill="url(#paint3_linear_23348_2551)"/>
<path d="M111.911 358.215H113.061V365.001C113.061 365.606 112.95 366.121 112.727 366.544C112.505 366.967 112.191 367.289 111.786 367.508C111.382 367.728 110.904 367.837 110.354 367.837C109.835 367.837 109.373 367.743 108.968 367.555C108.563 367.363 108.245 367.091 108.013 366.739C107.781 366.386 107.666 365.968 107.666 365.483H108.797C108.797 365.751 108.863 365.986 108.996 366.187C109.132 366.385 109.317 366.539 109.552 366.651C109.787 366.762 110.054 366.818 110.354 366.818C110.685 366.818 110.966 366.748 111.198 366.609C111.429 366.47 111.606 366.266 111.726 365.997C111.85 365.725 111.911 365.393 111.911 365.001V358.215ZM119.703 364.797V360.588H120.797V367.708H119.703V366.502H119.629C119.462 366.864 119.203 367.171 118.85 367.425C118.498 367.675 118.053 367.8 117.515 367.8C117.07 367.8 116.675 367.703 116.329 367.508C115.983 367.31 115.711 367.014 115.513 366.618C115.315 366.22 115.216 365.717 115.216 365.112V360.588H116.31V365.038C116.31 365.557 116.456 365.971 116.746 366.28C117.04 366.589 117.414 366.743 117.868 366.743C118.14 366.743 118.416 366.674 118.697 366.535C118.982 366.396 119.22 366.183 119.411 365.895C119.606 365.608 119.703 365.242 119.703 364.797ZM123.895 358.215V367.708H122.801V358.215H123.895ZM126.603 370.377C126.417 370.377 126.252 370.362 126.107 370.331C125.962 370.303 125.861 370.275 125.806 370.248L126.084 369.283C126.349 369.351 126.584 369.376 126.788 369.358C126.992 369.339 127.173 369.248 127.331 369.084C127.491 368.923 127.638 368.662 127.771 368.301L127.975 367.745L125.342 360.588H126.529L128.494 366.261H128.568L130.534 360.588H131.72L128.698 368.746C128.562 369.114 128.394 369.418 128.193 369.659C127.992 369.903 127.759 370.084 127.493 370.201C127.23 370.319 126.933 370.377 126.603 370.377Z" fill="#181D27"/>
<path d="M170.801 301.496C170.801 299.436 172.47 297.767 174.53 297.767H178.26C180.319 297.767 181.989 299.436 181.989 301.496V345.316H170.801V301.496Z" fill="url(#paint4_linear_23348_2551)"/>
<path d="M185.718 274.458C185.718 272.399 187.387 270.729 189.447 270.729H193.177C195.236 270.729 196.906 272.399 196.906 274.458V345.316H185.718V274.458Z" fill="url(#paint5_linear_23348_2551)"/>
<path d="M172.34 367.708H171.135L174.62 358.215H175.807L179.293 367.708H178.087L175.251 359.716H175.176L172.34 367.708ZM172.785 363.999H177.642V365.019H172.785V363.999ZM185.11 364.797V360.588H186.204V367.708H185.11V366.502H185.036C184.869 366.864 184.609 367.171 184.257 367.425C183.905 367.675 183.46 367.8 182.922 367.8C182.477 367.8 182.081 367.703 181.735 367.508C181.389 367.31 181.117 367.014 180.919 366.618C180.722 366.22 180.623 365.717 180.623 365.112V360.588H181.717V365.038C181.717 365.557 181.862 365.971 182.152 366.28C182.446 366.589 182.82 366.743 183.274 366.743C183.546 366.743 183.823 366.674 184.104 366.535C184.388 366.396 184.626 366.183 184.818 365.895C185.012 365.608 185.11 365.242 185.11 364.797ZM191.081 370.526C190.553 370.526 190.098 370.458 189.718 370.322C189.338 370.189 189.021 370.013 188.768 369.793C188.518 369.577 188.318 369.345 188.17 369.098L189.042 368.486C189.14 368.616 189.266 368.764 189.417 368.931C189.568 369.101 189.775 369.248 190.038 369.372C190.304 369.498 190.652 369.562 191.081 369.562C191.656 369.562 192.13 369.423 192.504 369.144C192.878 368.866 193.065 368.431 193.065 367.837V366.391H192.972C192.892 366.521 192.778 366.682 192.629 366.873C192.484 367.062 192.274 367.23 191.999 367.378C191.727 367.524 191.359 367.596 190.896 367.596C190.321 367.596 189.805 367.46 189.347 367.188C188.893 366.916 188.533 366.521 188.267 366.002C188.005 365.483 187.873 364.852 187.873 364.111C187.873 363.381 188.002 362.746 188.258 362.206C188.515 361.662 188.872 361.241 189.329 360.945C189.786 360.645 190.315 360.495 190.914 360.495C191.378 360.495 191.745 360.572 192.017 360.727C192.292 360.878 192.503 361.051 192.648 361.246C192.796 361.438 192.91 361.595 192.991 361.719H193.102V360.588H194.159V367.911C194.159 368.523 194.02 369.021 193.742 369.404C193.467 369.79 193.096 370.073 192.629 370.252C192.166 370.435 191.65 370.526 191.081 370.526ZM191.044 366.614C191.483 366.614 191.854 366.513 192.156 366.312C192.459 366.111 192.689 365.823 192.847 365.446C193.005 365.069 193.083 364.617 193.083 364.092C193.083 363.579 193.006 363.126 192.852 362.734C192.697 362.341 192.469 362.034 192.166 361.812C191.863 361.589 191.489 361.478 191.044 361.478C190.58 361.478 190.194 361.595 189.885 361.83C189.579 362.065 189.349 362.38 189.195 362.776C189.043 363.171 188.967 363.61 188.967 364.092C188.967 364.586 189.045 365.024 189.199 365.404C189.357 365.781 189.589 366.077 189.894 366.294C190.203 366.507 190.587 366.614 191.044 366.614Z" fill="#181D27"/>
<path d="M234.473 252.082C234.473 250.022 236.142 248.353 238.202 248.353H241.931C243.991 248.353 245.661 250.022 245.661 252.082V345.316H234.473V252.082Z" fill="url(#paint6_linear_23348_2551)"/>
<path d="M249.39 202.668C249.39 200.608 251.06 198.938 253.12 198.938H256.849C258.909 198.938 260.578 200.608 260.578 202.668V345.316H249.39V202.668Z" fill="url(#paint7_linear_23348_2551)"/>
<path d="M240.814 360.588C240.758 360.118 240.532 359.753 240.137 359.494C239.741 359.234 239.256 359.105 238.681 359.105C238.261 359.105 237.893 359.173 237.578 359.308C237.266 359.444 237.022 359.631 236.846 359.869C236.673 360.107 236.586 360.378 236.586 360.681C236.586 360.934 236.647 361.152 236.767 361.334C236.891 361.513 237.048 361.663 237.24 361.784C237.431 361.901 237.632 361.998 237.842 362.076C238.053 362.15 238.246 362.21 238.422 362.256L239.386 362.516C239.633 362.581 239.908 362.671 240.211 362.785C240.517 362.899 240.809 363.055 241.087 363.253C241.368 363.448 241.6 363.698 241.782 364.004C241.965 364.31 242.056 364.685 242.056 365.13C242.056 365.643 241.921 366.107 241.653 366.521C241.387 366.935 240.998 367.264 240.485 367.508C239.975 367.752 239.355 367.874 238.626 367.874C237.946 367.874 237.357 367.765 236.86 367.545C236.365 367.326 235.976 367.02 235.692 366.628C235.411 366.235 235.251 365.779 235.214 365.26H236.401C236.432 365.619 236.552 365.915 236.762 366.15C236.976 366.382 237.245 366.555 237.569 366.669C237.897 366.78 238.249 366.836 238.626 366.836C239.065 366.836 239.459 366.765 239.808 366.623C240.157 366.478 240.434 366.277 240.638 366.02C240.841 365.761 240.943 365.458 240.943 365.112C240.943 364.797 240.855 364.54 240.679 364.342C240.503 364.145 240.271 363.984 239.984 363.86C239.697 363.737 239.386 363.629 239.052 363.536L237.884 363.202C237.143 362.989 236.555 362.684 236.123 362.289C235.69 361.893 235.474 361.376 235.474 360.736C235.474 360.205 235.618 359.741 235.905 359.346C236.195 358.947 236.585 358.638 237.073 358.419C237.564 358.196 238.113 358.085 238.719 358.085C239.33 358.085 239.874 358.194 240.35 358.414C240.826 358.63 241.203 358.927 241.481 359.304C241.762 359.681 241.911 360.109 241.926 360.588H240.814ZM246.783 367.856C246.097 367.856 245.505 367.704 245.007 367.402C244.513 367.096 244.131 366.669 243.862 366.122C243.597 365.572 243.464 364.933 243.464 364.203C243.464 363.474 243.597 362.831 243.862 362.275C244.131 361.716 244.505 361.28 244.984 360.968C245.466 360.653 246.029 360.495 246.671 360.495C247.042 360.495 247.408 360.557 247.77 360.681C248.132 360.804 248.461 361.005 248.757 361.283C249.054 361.558 249.29 361.923 249.466 362.377C249.643 362.831 249.731 363.391 249.731 364.055V364.518H244.243V363.573H248.618C248.618 363.171 248.538 362.813 248.377 362.498C248.22 362.182 247.994 361.934 247.7 361.751C247.41 361.569 247.067 361.478 246.671 361.478C246.236 361.478 245.859 361.586 245.54 361.802C245.225 362.015 244.983 362.294 244.813 362.637C244.643 362.98 244.558 363.347 244.558 363.74V364.37C244.558 364.908 244.65 365.364 244.836 365.738C245.024 366.108 245.285 366.391 245.619 366.586C245.953 366.777 246.341 366.873 246.783 366.873C247.07 366.873 247.33 366.833 247.561 366.753C247.796 366.669 247.999 366.546 248.169 366.382C248.339 366.215 248.47 366.008 248.563 365.761L249.619 366.057C249.508 366.416 249.321 366.731 249.059 367.003C248.796 367.272 248.471 367.482 248.085 367.633C247.699 367.782 247.265 367.856 246.783 367.856ZM251.395 370.377V360.588H252.452V361.719H252.581C252.662 361.595 252.773 361.438 252.915 361.246C253.06 361.051 253.267 360.878 253.536 360.727C253.808 360.572 254.176 360.495 254.639 360.495C255.239 360.495 255.767 360.645 256.225 360.945C256.682 361.244 257.039 361.669 257.295 362.219C257.552 362.769 257.68 363.418 257.68 364.166C257.68 364.92 257.552 365.574 257.295 366.127C257.039 366.677 256.684 367.103 256.229 367.406C255.775 367.706 255.251 367.856 254.658 367.856C254.201 367.856 253.834 367.78 253.559 367.629C253.284 367.474 253.073 367.3 252.924 367.105C252.776 366.907 252.662 366.743 252.581 366.614H252.489V370.377H251.395ZM252.47 364.148C252.47 364.685 252.549 365.16 252.706 365.571C252.864 365.979 253.094 366.298 253.397 366.53C253.7 366.759 254.071 366.873 254.51 366.873C254.967 366.873 255.349 366.753 255.654 366.512C255.964 366.268 256.195 365.94 256.35 365.529C256.507 365.115 256.586 364.654 256.586 364.148C256.586 363.647 256.509 363.196 256.354 362.794C256.203 362.389 255.973 362.07 255.664 361.835C255.358 361.597 254.973 361.478 254.51 361.478C254.065 361.478 253.691 361.591 253.388 361.816C253.085 362.039 252.856 362.351 252.702 362.752C252.547 363.151 252.47 363.616 252.47 364.148Z" fill="#181D27"/>
<path d="M297.872 252.082C297.872 250.022 299.542 248.353 301.601 248.353H305.331C307.39 248.353 309.06 250.022 309.06 252.082V345.316H297.872V252.082Z" fill="url(#paint8_linear_23348_2551)"/>
<path d="M312.79 235.3C312.79 233.24 314.459 231.57 316.519 231.57H320.248C322.308 231.57 323.978 233.24 323.978 235.3V345.316H312.79V235.3Z" fill="url(#paint9_linear_23348_2551)"/>
<path d="M307.031 362.961C307.031 363.962 306.851 364.827 306.489 365.556C306.127 366.286 305.631 366.848 305.001 367.244C304.371 367.639 303.651 367.837 302.841 367.837C302.031 367.837 301.311 367.639 300.681 367.244C300.051 366.848 299.555 366.286 299.193 365.556C298.832 364.827 298.651 363.962 298.651 362.961C298.651 361.959 298.832 361.094 299.193 360.365C299.555 359.636 300.051 359.073 300.681 358.678C301.311 358.282 302.031 358.084 302.841 358.084C303.651 358.084 304.371 358.282 305.001 358.678C305.631 359.073 306.127 359.636 306.489 360.365C306.851 361.094 307.031 361.959 307.031 362.961ZM305.919 362.961C305.919 362.139 305.781 361.445 305.506 360.879C305.234 360.314 304.865 359.886 304.398 359.595C303.935 359.305 303.416 359.16 302.841 359.16C302.266 359.16 301.746 359.305 301.279 359.595C300.815 359.886 300.446 360.314 300.171 360.879C299.899 361.445 299.763 362.139 299.763 362.961C299.763 363.783 299.899 364.476 300.171 365.042C300.446 365.607 300.815 366.035 301.279 366.326C301.746 366.616 302.266 366.761 302.841 366.761C303.416 366.761 303.935 366.616 304.398 366.326C304.865 366.035 305.234 365.607 305.506 365.042C305.781 364.476 305.919 363.783 305.919 362.961ZM311.708 367.855C311.041 367.855 310.466 367.698 309.984 367.383C309.502 367.067 309.131 366.633 308.871 366.08C308.612 365.527 308.482 364.895 308.482 364.184C308.482 363.461 308.615 362.823 308.881 362.27C309.15 361.714 309.523 361.28 310.002 360.967C310.485 360.652 311.047 360.495 311.69 360.495C312.19 360.495 312.641 360.587 313.043 360.773C313.445 360.958 313.774 361.218 314.03 361.551C314.287 361.885 314.446 362.275 314.508 362.72H313.414C313.331 362.395 313.145 362.108 312.858 361.857C312.573 361.604 312.19 361.477 311.708 361.477C311.282 361.477 310.908 361.589 310.587 361.811C310.268 362.03 310.019 362.341 309.84 362.743C309.664 363.141 309.576 363.609 309.576 364.147C309.576 364.697 309.663 365.176 309.836 365.584C310.012 365.992 310.259 366.309 310.577 366.534C310.899 366.76 311.276 366.873 311.708 366.873C311.993 366.873 312.251 366.823 312.482 366.724C312.714 366.625 312.91 366.483 313.071 366.298C313.232 366.113 313.346 365.89 313.414 365.63H314.508C314.446 366.051 314.293 366.429 314.049 366.766C313.808 367.1 313.488 367.366 313.09 367.563C312.694 367.758 312.234 367.855 311.708 367.855ZM319.203 360.587V361.514H315.514V360.587H319.203ZM316.589 358.882H317.683V365.668C317.683 365.977 317.728 366.208 317.817 366.363C317.91 366.514 318.028 366.616 318.17 366.669C318.315 366.718 318.468 366.743 318.629 366.743C318.749 366.743 318.848 366.737 318.925 366.724C319.003 366.709 319.064 366.697 319.111 366.687L319.333 367.67C319.259 367.698 319.155 367.726 319.023 367.753C318.89 367.784 318.721 367.8 318.517 367.8C318.208 367.8 317.906 367.733 317.609 367.6C317.315 367.468 317.071 367.265 316.877 366.993C316.685 366.721 316.589 366.378 316.589 365.964V358.882Z" fill="#181D27"/>
<path d="M363.136 270.729C363.136 268.669 364.806 267 366.866 267H370.595C372.655 267 374.324 268.669 374.324 270.729V345.316H363.136V270.729Z" fill="url(#paint10_linear_23348_2551)"/>
<path d="M378.054 221.315C378.054 219.255 379.723 217.585 381.783 217.585H385.512C387.572 217.585 389.242 219.255 389.242 221.315V345.316H378.054V221.315Z" fill="url(#paint11_linear_23348_2551)"/>
<path d="M371.813 358.215V367.708H370.701L365.528 360.254H365.435V367.708H364.286V358.215H365.398L370.59 365.687H370.682V358.215H371.813ZM376.858 367.856C376.215 367.856 375.651 367.703 375.166 367.397C374.684 367.091 374.307 366.663 374.035 366.113C373.766 365.563 373.632 364.92 373.632 364.185C373.632 363.443 373.766 362.796 374.035 362.243C374.307 361.689 374.684 361.26 375.166 360.954C375.651 360.648 376.215 360.495 376.858 360.495C377.5 360.495 378.063 360.648 378.545 360.954C379.03 361.26 379.407 361.689 379.676 362.243C379.948 362.796 380.084 363.443 380.084 364.185C380.084 364.92 379.948 365.563 379.676 366.113C379.407 366.663 379.03 367.091 378.545 367.397C378.063 367.703 377.5 367.856 376.858 367.856ZM376.858 366.873C377.346 366.873 377.748 366.748 378.063 366.498C378.378 366.247 378.611 365.918 378.763 365.51C378.914 365.103 378.99 364.661 378.99 364.185C378.99 363.709 378.914 363.265 378.763 362.854C378.611 362.443 378.378 362.111 378.063 361.858C377.748 361.604 377.346 361.478 376.858 361.478C376.369 361.478 375.968 361.604 375.653 361.858C375.337 362.111 375.104 362.443 374.953 362.854C374.801 363.265 374.725 363.709 374.725 364.185C374.725 364.661 374.801 365.103 374.953 365.51C375.104 365.918 375.337 366.247 375.653 366.498C375.968 366.748 376.369 366.873 376.858 366.873ZM387.321 360.588L384.688 367.708H383.575L380.942 360.588H382.129L384.094 366.261H384.169L386.134 360.588H387.321Z" fill="#181D27"/>
<path d="M426.536 240.894C426.536 238.834 428.205 237.165 430.265 237.165H433.994C436.054 237.165 437.724 238.834 437.724 240.894V345.316H426.536V240.894Z" fill="url(#paint12_linear_23348_2551)"/>
<path d="M441.453 172.833C441.453 170.773 443.123 169.104 445.182 169.104H448.912C450.972 169.104 452.641 170.773 452.641 172.833V345.316H441.453V172.833Z" fill="url(#paint13_linear_23348_2551)"/>
<path d="M430.615 367.708H427.685V358.215H430.744C431.665 358.215 432.453 358.405 433.108 358.785C433.764 359.162 434.266 359.704 434.615 360.412C434.964 361.116 435.139 361.96 435.139 362.943C435.139 363.931 434.962 364.783 434.61 365.497C434.258 366.207 433.745 366.754 433.071 367.137C432.398 367.517 431.579 367.708 430.615 367.708ZM428.835 366.688H430.54C431.325 366.688 431.976 366.536 432.492 366.234C433.008 365.931 433.393 365.5 433.646 364.94C433.899 364.381 434.026 363.715 434.026 362.943C434.026 362.176 433.901 361.516 433.651 360.963C433.4 360.407 433.027 359.981 432.529 359.684C432.031 359.384 431.412 359.234 430.67 359.234H428.835V366.688ZM439.904 367.856C439.218 367.856 438.626 367.704 438.128 367.402C437.634 367.096 437.252 366.669 436.983 366.122C436.718 365.572 436.585 364.933 436.585 364.203C436.585 363.474 436.718 362.831 436.983 362.275C437.252 361.716 437.626 361.28 438.105 360.968C438.587 360.653 439.15 360.495 439.792 360.495C440.163 360.495 440.529 360.557 440.891 360.681C441.252 360.804 441.582 361.005 441.878 361.283C442.175 361.558 442.411 361.923 442.587 362.377C442.764 362.831 442.852 363.391 442.852 364.055V364.518H437.364V363.573H441.739C441.739 363.171 441.659 362.813 441.498 362.498C441.341 362.182 441.115 361.934 440.821 361.751C440.531 361.569 440.188 361.478 439.792 361.478C439.357 361.478 438.98 361.586 438.661 361.802C438.346 362.015 438.104 362.294 437.934 362.637C437.764 362.98 437.679 363.347 437.679 363.74V364.37C437.679 364.908 437.771 365.364 437.957 365.738C438.145 366.108 438.406 366.391 438.74 366.586C439.074 366.777 439.462 366.873 439.904 366.873C440.191 366.873 440.451 366.833 440.682 366.753C440.917 366.669 441.12 366.546 441.29 366.382C441.46 366.215 441.591 366.008 441.684 365.761L442.74 366.057C442.629 366.416 442.442 366.731 442.18 367.003C441.917 367.272 441.592 367.482 441.206 367.633C440.82 367.782 440.386 367.856 439.904 367.856ZM447.408 367.856C446.741 367.856 446.166 367.698 445.684 367.383C445.202 367.068 444.831 366.634 444.571 366.081C444.312 365.527 444.182 364.895 444.182 364.185C444.182 363.462 444.315 362.824 444.581 362.27C444.849 361.714 445.223 361.28 445.702 360.968C446.184 360.653 446.747 360.495 447.39 360.495C447.89 360.495 448.341 360.588 448.743 360.773C449.145 360.959 449.474 361.218 449.73 361.552C449.987 361.886 450.146 362.275 450.208 362.72H449.114C449.03 362.396 448.845 362.108 448.558 361.858C448.273 361.604 447.89 361.478 447.408 361.478C446.982 361.478 446.608 361.589 446.286 361.812C445.968 362.031 445.719 362.341 445.54 362.743C445.364 363.142 445.276 363.61 445.276 364.148C445.276 364.698 445.362 365.177 445.535 365.585C445.712 365.992 445.959 366.309 446.277 366.535C446.598 366.76 446.975 366.873 447.408 366.873C447.692 366.873 447.95 366.824 448.182 366.725C448.414 366.626 448.61 366.484 448.771 366.298C448.932 366.113 449.046 365.891 449.114 365.631H450.208C450.146 366.051 449.993 366.43 449.749 366.767C449.508 367.1 449.188 367.366 448.789 367.564C448.394 367.759 447.933 367.856 447.408 367.856Z" fill="#181D27"/>
<path d="M234.859 139.984C234.859 135.864 238.199 132.525 242.318 132.525H328.094C332.213 132.525 335.552 135.864 335.552 139.984V182.871C335.552 186.991 332.213 190.33 328.094 190.33H242.318C238.199 190.33 234.859 186.991 234.859 182.871V139.984Z" fill="#463CDE"/>
<path d="M259.646 188.013C260.477 188.013 260.893 189.017 260.305 189.604L254.645 195.265C254.281 195.629 253.691 195.629 253.327 195.265L247.666 189.604C247.079 189.017 247.495 188.013 248.326 188.013L259.646 188.013Z" fill="#463CDE"/>
<path d="M250.508 159.272V145.711H251.377V159.272H250.508ZM253.014 150.049C252.964 149.587 252.756 149.227 252.389 148.969C252.025 148.711 251.552 148.582 250.969 148.582C250.559 148.582 250.208 148.644 249.915 148.767C249.622 148.891 249.398 149.059 249.242 149.271C249.087 149.483 249.007 149.724 249.004 149.996C249.004 150.222 249.055 150.418 249.157 150.584C249.263 150.75 249.406 150.892 249.587 151.008C249.767 151.121 249.966 151.217 250.185 151.294C250.404 151.372 250.625 151.437 250.847 151.49L251.864 151.745C252.274 151.84 252.668 151.969 253.046 152.131C253.427 152.294 253.768 152.499 254.068 152.746C254.372 152.993 254.612 153.291 254.789 153.641C254.965 153.991 255.053 154.4 255.053 154.87C255.053 155.506 254.891 156.065 254.566 156.549C254.241 157.03 253.771 157.406 253.157 157.678C252.546 157.946 251.806 158.08 250.937 158.08C250.093 158.08 249.36 157.95 248.739 157.688C248.121 157.427 247.637 157.045 247.287 156.544C246.941 156.043 246.754 155.432 246.726 154.711H248.659C248.688 155.089 248.804 155.403 249.009 155.654C249.214 155.905 249.481 156.092 249.809 156.216C250.141 156.339 250.512 156.401 250.921 156.401C251.349 156.401 251.723 156.337 252.045 156.21C252.369 156.08 252.624 155.899 252.807 155.67C252.991 155.437 253.085 155.165 253.088 154.854C253.085 154.572 253.002 154.339 252.839 154.155C252.677 153.968 252.449 153.812 252.156 153.689C251.866 153.562 251.527 153.449 251.139 153.35L249.904 153.032C249.011 152.802 248.305 152.454 247.785 151.988C247.27 151.519 247.012 150.895 247.012 150.118C247.012 149.479 247.185 148.919 247.531 148.439C247.881 147.959 248.356 147.586 248.956 147.321C249.556 147.053 250.236 146.919 250.996 146.919C251.766 146.919 252.44 147.053 253.019 147.321C253.602 147.586 254.059 147.955 254.391 148.428C254.723 148.898 254.895 149.438 254.905 150.049H253.014ZM260.556 158.064C259.769 158.064 259.069 157.932 258.458 157.667C257.851 157.402 257.374 157.04 257.028 156.581C256.685 156.118 256.516 155.594 256.519 155.008C256.516 154.552 256.615 154.134 256.816 153.752C257.017 153.371 257.289 153.053 257.632 152.799C257.978 152.541 258.363 152.377 258.787 152.306V152.232C258.229 152.108 257.777 151.824 257.431 151.379C257.088 150.931 256.919 150.413 256.922 149.827C256.919 149.269 257.074 148.771 257.388 148.333C257.703 147.895 258.133 147.551 258.681 147.3C259.228 147.046 259.853 146.919 260.556 146.919C261.252 146.919 261.872 147.046 262.416 147.3C262.963 147.551 263.394 147.895 263.708 148.333C264.026 148.771 264.185 149.269 264.185 149.827C264.185 150.413 264.01 150.931 263.66 151.379C263.314 151.824 262.868 152.108 262.32 152.232V152.306C262.744 152.377 263.125 152.541 263.464 152.799C263.807 153.053 264.079 153.371 264.28 153.752C264.485 154.134 264.587 154.552 264.587 155.008C264.587 155.594 264.414 156.118 264.068 156.581C263.722 157.04 263.245 157.402 262.638 157.667C262.034 157.932 261.34 158.064 260.556 158.064ZM260.556 156.549C260.962 156.549 261.315 156.48 261.616 156.343C261.916 156.201 262.149 156.004 262.315 155.749C262.481 155.495 262.566 155.202 262.569 154.87C262.566 154.524 262.476 154.218 262.299 153.954C262.126 153.685 261.888 153.475 261.584 153.323C261.284 153.171 260.941 153.095 260.556 153.095C260.168 153.095 259.822 153.171 259.518 153.323C259.214 153.475 258.974 153.685 258.797 153.954C258.624 154.218 258.54 154.524 258.543 154.87C258.54 155.202 258.621 155.495 258.787 155.749C258.953 156 259.186 156.196 259.486 156.337C259.79 156.479 260.146 156.549 260.556 156.549ZM260.556 151.607C260.888 151.607 261.181 151.54 261.435 151.406C261.693 151.271 261.896 151.084 262.045 150.844C262.193 150.604 262.269 150.327 262.272 150.012C262.269 149.702 262.195 149.43 262.05 149.196C261.905 148.96 261.704 148.778 261.446 148.651C261.188 148.52 260.892 148.455 260.556 148.455C260.214 148.455 259.912 148.52 259.65 148.651C259.392 148.778 259.191 148.96 259.046 149.196C258.905 149.43 258.836 149.702 258.84 150.012C258.836 150.327 258.907 150.604 259.052 150.844C259.2 151.081 259.403 151.268 259.661 151.406C259.922 151.54 260.221 151.607 260.556 151.607ZM270.339 158.123C269.467 158.123 268.718 157.902 268.093 157.46C267.471 157.015 266.993 156.374 266.657 155.537C266.325 154.697 266.159 153.685 266.159 152.502C266.163 151.319 266.331 150.312 266.663 149.483C266.998 148.649 267.477 148.013 268.098 147.575C268.723 147.138 269.47 146.919 270.339 146.919C271.208 146.919 271.955 147.138 272.58 147.575C273.205 148.013 273.684 148.649 274.015 149.483C274.351 150.316 274.519 151.323 274.519 152.502C274.519 153.689 274.351 154.702 274.015 155.543C273.684 156.38 273.205 157.019 272.58 157.46C271.958 157.902 271.211 158.123 270.339 158.123ZM270.339 156.465C271.017 156.465 271.552 156.131 271.944 155.463C272.34 154.792 272.538 153.805 272.538 152.502C272.538 151.64 272.447 150.916 272.267 150.33C272.087 149.744 271.833 149.302 271.505 149.006C271.176 148.706 270.788 148.556 270.339 148.556C269.665 148.556 269.131 148.891 268.739 149.562C268.347 150.229 268.15 151.21 268.146 152.502C268.142 153.367 268.229 154.095 268.406 154.685C268.586 155.274 268.84 155.719 269.168 156.02C269.497 156.316 269.887 156.465 270.339 156.465ZM280.172 158.064C279.41 158.064 278.732 157.934 278.138 157.672C277.548 157.411 277.082 157.047 276.74 156.581C276.397 156.115 276.215 155.576 276.194 154.965H278.186C278.204 155.258 278.301 155.515 278.477 155.733C278.654 155.949 278.889 156.117 279.182 156.237C279.475 156.357 279.803 156.417 280.167 156.417C280.556 156.417 280.9 156.35 281.2 156.216C281.5 156.078 281.735 155.887 281.905 155.643C282.074 155.4 282.157 155.119 282.154 154.801C282.157 154.473 282.072 154.183 281.899 153.932C281.726 153.682 281.476 153.486 281.147 153.344C280.822 153.203 280.43 153.132 279.971 153.132H279.012V151.617H279.971C280.349 151.617 280.679 151.552 280.962 151.421C281.248 151.291 281.472 151.107 281.634 150.87C281.797 150.63 281.876 150.353 281.873 150.039C281.876 149.732 281.808 149.465 281.666 149.239C281.529 149.009 281.333 148.831 281.078 148.704C280.828 148.577 280.533 148.513 280.194 148.513C279.862 148.513 279.554 148.573 279.272 148.693C278.989 148.813 278.762 148.985 278.588 149.207C278.415 149.426 278.324 149.687 278.313 149.991H276.422C276.436 149.384 276.611 148.85 276.946 148.391C277.285 147.929 277.737 147.568 278.302 147.311C278.867 147.049 279.501 146.919 280.204 146.919C280.928 146.919 281.557 147.055 282.09 147.327C282.627 147.595 283.042 147.957 283.335 148.412C283.628 148.868 283.775 149.371 283.775 149.922C283.778 150.533 283.598 151.045 283.234 151.458C282.874 151.872 282.401 152.142 281.815 152.269V152.354C282.577 152.46 283.162 152.742 283.568 153.201C283.978 153.657 284.181 154.224 284.177 154.902C284.177 155.509 284.004 156.053 283.658 156.533C283.316 157.01 282.842 157.385 282.238 157.656C281.638 157.928 280.949 158.064 280.172 158.064ZM285.996 157.916V156.496L289.762 152.804C290.122 152.44 290.422 152.117 290.663 151.835C290.903 151.552 291.083 151.278 291.203 151.013C291.323 150.749 291.383 150.466 291.383 150.166C291.383 149.823 291.305 149.53 291.15 149.287C290.995 149.039 290.781 148.849 290.509 148.714C290.237 148.58 289.928 148.513 289.582 148.513C289.225 148.513 288.913 148.587 288.644 148.736C288.376 148.88 288.168 149.087 288.019 149.355C287.874 149.624 287.802 149.943 287.802 150.314H285.932C285.932 149.626 286.089 149.027 286.403 148.518C286.718 148.01 287.15 147.616 287.701 147.337C288.256 147.058 288.891 146.919 289.608 146.919C290.336 146.919 290.975 147.055 291.526 147.327C292.077 147.598 292.504 147.971 292.808 148.444C293.115 148.917 293.269 149.458 293.269 150.065C293.269 150.471 293.191 150.87 293.036 151.262C292.88 151.654 292.607 152.089 292.215 152.566C291.826 153.042 291.281 153.62 290.578 154.298L288.708 156.2V156.274H293.433V157.916H285.996ZM299.032 158.064C298.326 158.064 297.694 157.932 297.136 157.667C296.578 157.399 296.135 157.031 295.806 156.565C295.481 156.099 295.308 155.566 295.287 154.965H297.194C297.23 155.41 297.422 155.774 297.772 156.057C298.121 156.336 298.542 156.475 299.032 156.475C299.417 156.475 299.76 156.387 300.06 156.21C300.36 156.034 300.597 155.788 300.77 155.474C300.943 155.16 301.028 154.801 301.024 154.399C301.028 153.989 300.941 153.625 300.765 153.307C300.588 152.989 300.346 152.74 300.039 152.56C299.732 152.377 299.379 152.285 298.98 152.285C298.655 152.281 298.335 152.341 298.021 152.465C297.706 152.589 297.457 152.751 297.274 152.952L295.499 152.661L296.066 147.067H302.359V148.709H297.692L297.38 151.586H297.443C297.645 151.349 297.929 151.153 298.296 150.998C298.663 150.839 299.066 150.759 299.504 150.759C300.161 150.759 300.747 150.915 301.263 151.225C301.778 151.533 302.184 151.956 302.481 152.497C302.778 153.037 302.926 153.655 302.926 154.351C302.926 155.068 302.76 155.707 302.428 156.269C302.1 156.827 301.642 157.266 301.056 157.588C300.473 157.905 299.799 158.064 299.032 158.064ZM305.539 158.033C305.218 158.033 304.942 157.92 304.713 157.694C304.483 157.468 304.37 157.192 304.374 156.867C304.37 156.549 304.483 156.277 304.713 156.051C304.942 155.825 305.218 155.712 305.539 155.712C305.85 155.712 306.12 155.825 306.35 156.051C306.583 156.277 306.701 156.549 306.704 156.867C306.701 157.083 306.644 157.279 306.535 157.455C306.429 157.632 306.288 157.773 306.111 157.879C305.938 157.981 305.747 158.033 305.539 158.033ZM312.304 158.064C311.597 158.064 310.965 157.932 310.407 157.667C309.849 157.399 309.406 157.031 309.078 156.565C308.753 156.099 308.58 155.566 308.559 154.965H310.466C310.501 155.41 310.693 155.774 311.043 156.057C311.393 156.336 311.813 156.475 312.304 156.475C312.689 156.475 313.031 156.387 313.332 156.21C313.632 156.034 313.868 155.788 314.041 155.474C314.214 155.16 314.299 154.801 314.296 154.399C314.299 153.989 314.213 153.625 314.036 153.307C313.859 152.989 313.618 152.74 313.31 152.56C313.003 152.377 312.65 152.285 312.251 152.285C311.926 152.281 311.606 152.341 311.292 152.465C310.978 152.589 310.729 152.751 310.545 152.952L308.77 152.661L309.337 147.067H315.631V148.709H310.964L310.651 151.586H310.715C310.916 151.349 311.2 151.153 311.567 150.998C311.935 150.839 312.337 150.759 312.775 150.759C313.432 150.759 314.018 150.915 314.534 151.225C315.05 151.533 315.456 151.956 315.752 152.497C316.049 153.037 316.197 153.655 316.197 154.351C316.197 155.068 316.031 155.707 315.699 156.269C315.371 156.827 314.914 157.266 314.327 157.588C313.745 157.905 313.07 158.064 312.304 158.064ZM321.982 158.123C321.11 158.123 320.361 157.902 319.736 157.46C319.115 157.015 318.636 156.374 318.3 155.537C317.969 154.697 317.803 153.685 317.803 152.502C317.806 151.319 317.974 150.312 318.306 149.483C318.641 148.649 319.12 148.013 319.741 147.575C320.366 147.138 321.113 146.919 321.982 146.919C322.851 146.919 323.598 147.138 324.223 147.575C324.848 148.013 325.327 148.649 325.659 149.483C325.994 150.316 326.162 151.323 326.162 152.502C326.162 153.689 325.994 154.702 325.659 155.543C325.327 156.38 324.848 157.019 324.223 157.46C323.601 157.902 322.854 158.123 321.982 158.123ZM321.982 156.465C322.66 156.465 323.195 156.131 323.587 155.463C323.983 154.792 324.181 153.805 324.181 152.502C324.181 151.64 324.091 150.916 323.91 150.33C323.73 149.744 323.476 149.302 323.148 149.006C322.819 148.706 322.431 148.556 321.982 148.556C321.308 148.556 320.774 148.891 320.382 149.562C319.99 150.229 319.793 151.21 319.789 152.502C319.786 153.367 319.872 154.095 320.049 154.685C320.229 155.274 320.483 155.719 320.811 156.02C321.14 156.316 321.53 156.465 321.982 156.465Z" fill="white"/>
<path d="M251.483 171.678C251.435 171.276 251.242 170.963 250.903 170.741C250.564 170.518 250.148 170.407 249.655 170.407C249.295 170.407 248.98 170.465 248.71 170.582C248.442 170.698 248.233 170.858 248.082 171.062C247.934 171.266 247.86 171.498 247.86 171.758C247.86 171.975 247.911 172.162 248.015 172.318C248.12 172.471 248.256 172.6 248.42 172.703C248.584 172.804 248.756 172.887 248.936 172.954C249.116 173.017 249.282 173.069 249.433 173.108L250.259 173.331C250.471 173.387 250.707 173.463 250.966 173.561C251.229 173.659 251.479 173.793 251.717 173.963C251.958 174.13 252.157 174.344 252.313 174.606C252.47 174.869 252.548 175.19 252.548 175.572C252.548 176.011 252.433 176.409 252.202 176.764C251.974 177.119 251.641 177.401 251.201 177.61C250.764 177.819 250.233 177.924 249.608 177.924C249.025 177.924 248.52 177.83 248.094 177.642C247.67 177.454 247.336 177.191 247.093 176.855C246.852 176.519 246.715 176.128 246.684 175.683H247.701C247.727 175.99 247.83 176.245 248.011 176.446C248.193 176.644 248.424 176.793 248.702 176.891C248.983 176.986 249.285 177.034 249.608 177.034C249.984 177.034 250.322 176.973 250.621 176.851C250.92 176.727 251.157 176.554 251.332 176.335C251.507 176.112 251.594 175.853 251.594 175.556C251.594 175.286 251.519 175.066 251.368 174.896C251.217 174.727 251.018 174.589 250.772 174.483C250.525 174.377 250.259 174.284 249.973 174.205L248.972 173.919C248.336 173.736 247.833 173.475 247.462 173.136C247.091 172.797 246.906 172.354 246.906 171.805C246.906 171.35 247.029 170.952 247.276 170.613C247.525 170.272 247.858 170.007 248.277 169.819C248.698 169.628 249.168 169.533 249.687 169.533C250.212 169.533 250.678 169.627 251.086 169.815C251.494 170 251.817 170.254 252.055 170.578C252.296 170.901 252.423 171.268 252.437 171.678H251.483ZM256.599 177.908C256.011 177.908 255.504 177.778 255.078 177.519C254.654 177.256 254.327 176.891 254.096 176.422C253.868 175.951 253.755 175.402 253.755 174.777C253.755 174.152 253.868 173.601 254.096 173.124C254.327 172.645 254.647 172.271 255.058 172.004C255.471 171.734 255.953 171.599 256.504 171.599C256.822 171.599 257.136 171.652 257.446 171.758C257.755 171.864 258.038 172.036 258.292 172.274C258.546 172.51 258.749 172.822 258.9 173.212C259.051 173.601 259.126 174.081 259.126 174.65V175.047H254.422V174.237H258.173C258.173 173.892 258.104 173.585 257.966 173.315C257.831 173.045 257.638 172.832 257.386 172.675C257.137 172.519 256.843 172.441 256.504 172.441C256.13 172.441 255.807 172.534 255.535 172.719C255.264 172.902 255.056 173.14 254.911 173.434C254.765 173.728 254.692 174.043 254.692 174.38V174.92C254.692 175.381 254.772 175.772 254.931 176.092C255.092 176.41 255.316 176.652 255.602 176.819C255.888 176.984 256.221 177.066 256.599 177.066C256.846 177.066 257.068 177.031 257.267 176.962C257.468 176.891 257.642 176.785 257.787 176.644C257.933 176.501 258.045 176.324 258.125 176.112L259.031 176.366C258.935 176.674 258.775 176.944 258.55 177.177C258.325 177.407 258.047 177.587 257.716 177.717C257.385 177.844 257.012 177.908 256.599 177.908ZM260.552 180.069V171.678H261.458V172.648H261.57C261.638 172.542 261.734 172.407 261.856 172.242C261.98 172.075 262.158 171.927 262.388 171.797C262.621 171.665 262.936 171.599 263.334 171.599C263.847 171.599 264.3 171.727 264.692 171.984C265.084 172.241 265.39 172.605 265.61 173.077C265.83 173.548 265.94 174.104 265.94 174.745C265.94 175.392 265.83 175.952 265.61 176.426C265.39 176.897 265.086 177.263 264.696 177.523C264.307 177.779 263.858 177.908 263.35 177.908C262.957 177.908 262.644 177.843 262.408 177.713C262.172 177.581 261.991 177.431 261.864 177.264C261.736 177.095 261.638 176.954 261.57 176.843H261.49V180.069H260.552ZM261.474 174.729C261.474 175.19 261.542 175.597 261.677 175.949C261.812 176.299 262.009 176.573 262.269 176.772C262.528 176.968 262.846 177.066 263.222 177.066C263.614 177.066 263.941 176.962 264.204 176.756C264.469 176.546 264.667 176.266 264.8 175.913C264.935 175.559 265.002 175.164 265.002 174.729C265.002 174.3 264.936 173.914 264.804 173.569C264.674 173.222 264.477 172.948 264.212 172.747C263.949 172.543 263.62 172.441 263.222 172.441C262.841 172.441 262.52 172.538 262.261 172.731C262.001 172.922 261.805 173.189 261.673 173.534C261.54 173.875 261.474 174.274 261.474 174.729ZM270.501 177.781V177.066L273.187 174.126C273.502 173.781 273.762 173.482 273.966 173.228C274.169 172.971 274.32 172.73 274.418 172.505C274.519 172.277 274.569 172.038 274.569 171.789C274.569 171.503 274.501 171.256 274.363 171.046C274.228 170.837 274.042 170.676 273.807 170.562C273.571 170.448 273.306 170.391 273.012 170.391C272.699 170.391 272.427 170.456 272.194 170.586C271.963 170.713 271.784 170.891 271.657 171.122C271.533 171.352 271.47 171.623 271.47 171.932H270.533C270.533 171.456 270.643 171.037 270.863 170.677C271.082 170.317 271.382 170.036 271.76 169.835C272.142 169.633 272.57 169.533 273.044 169.533C273.521 169.533 273.943 169.633 274.311 169.835C274.679 170.036 274.968 170.307 275.177 170.649C275.387 170.991 275.491 171.371 275.491 171.789C275.491 172.089 275.437 172.381 275.328 172.667C275.222 172.951 275.037 173.267 274.772 173.617C274.51 173.964 274.146 174.388 273.679 174.888L271.852 176.843V176.907H275.634V177.781H270.501ZM279.929 177.892C279.33 177.892 278.821 177.729 278.399 177.403C277.978 177.075 277.656 176.599 277.434 175.977C277.211 175.352 277.1 174.597 277.1 173.712C277.1 172.833 277.211 172.082 277.434 171.46C277.659 170.835 277.982 170.358 278.403 170.029C278.827 169.698 279.336 169.533 279.929 169.533C280.522 169.533 281.03 169.698 281.451 170.029C281.875 170.358 282.198 170.835 282.42 171.46C282.645 172.082 282.758 172.833 282.758 173.712C282.758 174.597 282.647 175.352 282.424 175.977C282.202 176.599 281.88 177.075 281.459 177.403C281.038 177.729 280.528 177.892 279.929 177.892ZM279.929 177.018C280.522 177.018 280.983 176.732 281.312 176.16C281.64 175.588 281.804 174.772 281.804 173.712C281.804 173.008 281.729 172.408 281.578 171.913C281.43 171.417 281.215 171.04 280.934 170.78C280.656 170.521 280.321 170.391 279.929 170.391C279.341 170.391 278.881 170.681 278.55 171.261C278.219 171.838 278.054 172.656 278.054 173.712C278.054 174.417 278.128 175.016 278.276 175.508C278.425 176.001 278.638 176.376 278.916 176.633C279.197 176.889 279.534 177.018 279.929 177.018ZM284.268 177.781V177.066L286.953 174.126C287.269 173.781 287.528 173.482 287.732 173.228C287.936 172.971 288.087 172.73 288.185 172.505C288.286 172.277 288.336 172.038 288.336 171.789C288.336 171.503 288.267 171.256 288.129 171.046C287.994 170.837 287.809 170.676 287.573 170.562C287.337 170.448 287.073 170.391 286.779 170.391C286.466 170.391 286.193 170.456 285.96 170.586C285.73 170.713 285.551 170.891 285.424 171.122C285.299 171.352 285.237 171.623 285.237 171.932H284.299C284.299 171.456 284.409 171.037 284.629 170.677C284.849 170.317 285.148 170.036 285.527 169.835C285.909 169.633 286.336 169.533 286.81 169.533C287.287 169.533 287.71 169.633 288.078 169.835C288.446 170.036 288.735 170.307 288.944 170.649C289.153 170.991 289.258 171.371 289.258 171.789C289.258 172.089 289.203 172.381 289.095 172.667C288.989 172.951 288.804 173.267 288.539 173.617C288.276 173.964 287.912 174.388 287.446 174.888L285.618 176.843V176.907H289.401V177.781H284.268ZM293.584 177.892C293.118 177.892 292.698 177.799 292.325 177.614C291.952 177.428 291.652 177.174 291.427 176.851C291.202 176.528 291.079 176.16 291.058 175.747H292.011C292.048 176.115 292.215 176.419 292.512 176.66C292.811 176.899 293.169 177.018 293.584 177.018C293.918 177.018 294.215 176.94 294.474 176.784C294.737 176.627 294.942 176.413 295.09 176.14C295.241 175.864 295.317 175.553 295.317 175.206C295.317 174.851 295.239 174.535 295.082 174.257C294.929 173.976 294.717 173.755 294.447 173.593C294.176 173.432 293.868 173.349 293.521 173.347C293.272 173.344 293.016 173.383 292.754 173.462C292.492 173.539 292.276 173.638 292.106 173.76L291.185 173.649L291.677 169.644H295.905V170.518H292.504L292.218 172.918H292.265C292.432 172.785 292.642 172.675 292.893 172.588C293.145 172.501 293.407 172.457 293.68 172.457C294.178 172.457 294.621 172.576 295.011 172.814C295.403 173.05 295.71 173.373 295.933 173.784C296.158 174.194 296.27 174.663 296.27 175.19C296.27 175.709 296.154 176.173 295.921 176.581C295.69 176.986 295.372 177.307 294.967 177.542C294.562 177.775 294.101 177.892 293.584 177.892Z" fill="white"/>
<g filter="url(#filter0_d_23348_2551)">
<path d="M361.658 334.843C361.658 326.604 368.337 319.925 376.576 319.925H587.285C595.524 319.925 602.203 326.604 602.203 334.843V416.166C602.203 424.405 595.524 431.084 587.285 431.084H376.576C368.337 431.084 361.658 424.405 361.658 416.166V334.843Z" fill="white"/>
<path d="M381.455 352.572V343.079H384.662C385.404 343.079 386.013 343.206 386.489 343.459C386.964 343.709 387.317 344.054 387.545 344.493C387.774 344.931 387.888 345.43 387.888 345.99C387.888 346.549 387.774 347.045 387.545 347.478C387.317 347.91 386.966 348.25 386.493 348.497C386.02 348.742 385.416 348.864 384.681 348.864H382.085V347.825H384.644C385.151 347.825 385.558 347.751 385.867 347.603C386.18 347.454 386.405 347.244 386.544 346.972C386.686 346.697 386.757 346.37 386.757 345.99C386.757 345.61 386.686 345.277 386.544 344.993C386.402 344.709 386.175 344.489 385.863 344.335C385.551 344.177 385.138 344.099 384.625 344.099H382.604V352.572H381.455ZM385.923 348.307L388.259 352.572H386.924L384.625 348.307H385.923ZM392.564 352.72C391.878 352.72 391.286 352.569 390.789 352.266C390.294 351.96 389.913 351.533 389.644 350.987C389.378 350.436 389.245 349.797 389.245 349.068C389.245 348.338 389.378 347.696 389.644 347.139C389.913 346.58 390.287 346.144 390.766 345.832C391.248 345.517 391.81 345.359 392.453 345.359C392.824 345.359 393.19 345.421 393.552 345.545C393.913 345.668 394.242 345.869 394.539 346.147C394.835 346.422 395.072 346.787 395.248 347.241C395.424 347.696 395.512 348.255 395.512 348.919V349.383H390.024V348.437H394.4C394.4 348.035 394.319 347.677 394.159 347.362C394.001 347.047 393.776 346.798 393.482 346.616C393.191 346.433 392.848 346.342 392.453 346.342C392.017 346.342 391.64 346.45 391.322 346.666C391.007 346.88 390.764 347.158 390.594 347.501C390.424 347.844 390.339 348.212 390.339 348.604V349.234C390.339 349.772 390.432 350.228 390.617 350.602C390.806 350.973 391.067 351.255 391.401 351.45C391.734 351.642 392.122 351.737 392.564 351.737C392.852 351.737 393.111 351.697 393.343 351.617C393.578 351.533 393.78 351.41 393.95 351.246C394.12 351.079 394.251 350.872 394.344 350.625L395.401 350.922C395.29 351.28 395.103 351.595 394.84 351.867C394.577 352.136 394.253 352.346 393.867 352.498C393.48 352.646 393.046 352.72 392.564 352.72ZM400.069 352.72C399.401 352.72 398.826 352.563 398.344 352.247C397.862 351.932 397.491 351.498 397.232 350.945C396.972 350.392 396.843 349.76 396.843 349.049C396.843 348.326 396.975 347.688 397.241 347.135C397.51 346.578 397.884 346.144 398.363 345.832C398.845 345.517 399.407 345.359 400.05 345.359C400.551 345.359 401.002 345.452 401.404 345.637C401.805 345.823 402.134 346.082 402.391 346.416C402.647 346.75 402.807 347.139 402.868 347.584H401.774C401.691 347.26 401.506 346.972 401.218 346.722C400.934 346.469 400.551 346.342 400.069 346.342C399.642 346.342 399.268 346.453 398.947 346.676C398.629 346.895 398.38 347.206 398.201 347.607C398.024 348.006 397.936 348.474 397.936 349.012C397.936 349.562 398.023 350.041 398.196 350.449C398.372 350.857 398.619 351.173 398.938 351.399C399.259 351.625 399.636 351.737 400.069 351.737C400.353 351.737 400.611 351.688 400.843 351.589C401.074 351.49 401.271 351.348 401.431 351.163C401.592 350.977 401.706 350.755 401.774 350.495H402.868C402.807 350.915 402.654 351.294 402.409 351.631C402.168 351.965 401.849 352.23 401.45 352.428C401.054 352.623 400.594 352.72 400.069 352.72ZM407.36 352.72C406.717 352.72 406.153 352.567 405.668 352.261C405.186 351.955 404.809 351.527 404.537 350.977C404.268 350.427 404.134 349.784 404.134 349.049C404.134 348.307 404.268 347.66 404.537 347.107C404.809 346.554 405.186 346.124 405.668 345.818C406.153 345.512 406.717 345.359 407.36 345.359C408.003 345.359 408.565 345.512 409.047 345.818C409.532 346.124 409.909 346.554 410.178 347.107C410.45 347.66 410.586 348.307 410.586 349.049C410.586 349.784 410.45 350.427 410.178 350.977C409.909 351.527 409.532 351.955 409.047 352.261C408.565 352.567 408.003 352.72 407.36 352.72ZM407.36 351.737C407.848 351.737 408.25 351.612 408.565 351.362C408.88 351.112 409.114 350.783 409.265 350.375C409.416 349.967 409.492 349.525 409.492 349.049C409.492 348.573 409.416 348.13 409.265 347.719C409.114 347.308 408.88 346.976 408.565 346.722C408.25 346.469 407.848 346.342 407.36 346.342C406.872 346.342 406.47 346.469 406.155 346.722C405.839 346.976 405.606 347.308 405.455 347.719C405.303 348.13 405.228 348.573 405.228 349.049C405.228 349.525 405.303 349.967 405.455 350.375C405.606 350.783 405.839 351.112 406.155 351.362C406.47 351.612 406.872 351.737 407.36 351.737ZM417.823 345.452L415.19 352.572H414.077L411.445 345.452H412.631L414.597 351.126H414.671L416.636 345.452H417.823ZM421.997 352.72C421.311 352.72 420.719 352.569 420.221 352.266C419.727 351.96 419.345 351.533 419.077 350.987C418.811 350.436 418.678 349.797 418.678 349.068C418.678 348.338 418.811 347.696 419.077 347.139C419.345 346.58 419.719 346.144 420.198 345.832C420.68 345.517 421.243 345.359 421.885 345.359C422.256 345.359 422.622 345.421 422.984 345.545C423.346 345.668 423.675 345.869 423.971 346.147C424.268 346.422 424.504 346.787 424.681 347.241C424.857 347.696 424.945 348.255 424.945 348.919V349.383H419.457V348.437H423.832C423.832 348.035 423.752 347.677 423.591 347.362C423.434 347.047 423.208 346.798 422.915 346.616C422.624 346.433 422.281 346.342 421.885 346.342C421.45 346.342 421.073 346.45 420.755 346.666C420.439 346.88 420.197 347.158 420.027 347.501C419.857 347.844 419.772 348.212 419.772 348.604V349.234C419.772 349.772 419.865 350.228 420.05 350.602C420.238 350.973 420.5 351.255 420.833 351.45C421.167 351.642 421.555 351.737 421.997 351.737C422.284 351.737 422.544 351.697 422.775 351.617C423.01 351.533 423.213 351.41 423.383 351.246C423.553 351.079 423.684 350.872 423.777 350.625L424.834 350.922C424.722 351.28 424.535 351.595 424.273 351.867C424.01 352.136 423.686 352.346 423.299 352.498C422.913 352.646 422.479 352.72 421.997 352.72ZM426.609 352.572V345.452H427.666V346.527H427.74C427.87 346.175 428.104 345.889 428.444 345.67C428.784 345.451 429.167 345.341 429.594 345.341C429.674 345.341 429.775 345.342 429.895 345.345C430.016 345.349 430.107 345.353 430.169 345.359V346.472C430.132 346.463 430.047 346.449 429.914 346.43C429.784 346.408 429.646 346.398 429.501 346.398C429.155 346.398 428.846 346.47 428.574 346.616C428.305 346.758 428.092 346.955 427.934 347.209C427.78 347.459 427.703 347.745 427.703 348.066V352.572H426.609ZM434.234 352.72C433.548 352.72 432.956 352.569 432.458 352.266C431.964 351.96 431.582 351.533 431.314 350.987C431.048 350.436 430.915 349.797 430.915 349.068C430.915 348.338 431.048 347.696 431.314 347.139C431.582 346.58 431.956 346.144 432.435 345.832C432.917 345.517 433.48 345.359 434.123 345.359C434.493 345.359 434.86 345.421 435.221 345.545C435.583 345.668 435.912 345.869 436.208 346.147C436.505 346.422 436.741 346.787 436.918 347.241C437.094 347.696 437.182 348.255 437.182 348.919V349.383H431.694V348.437H436.069C436.069 348.035 435.989 347.677 435.828 347.362C435.671 347.047 435.445 346.798 435.152 346.616C434.861 346.433 434.518 346.342 434.123 346.342C433.687 346.342 433.31 346.45 432.992 346.666C432.676 346.88 432.434 347.158 432.264 347.501C432.094 347.844 432.009 348.212 432.009 348.604V349.234C432.009 349.772 432.102 350.228 432.287 350.602C432.475 350.973 432.737 351.255 433.07 351.45C433.404 351.642 433.792 351.737 434.234 351.737C434.521 351.737 434.781 351.697 435.012 351.617C435.247 351.533 435.45 351.41 435.62 351.246C435.79 351.079 435.921 350.872 436.014 350.625L437.071 350.922C436.959 351.28 436.772 351.595 436.51 351.867C436.247 352.136 435.923 352.346 435.536 352.498C435.15 352.646 434.716 352.72 434.234 352.72ZM441.534 352.72C440.941 352.72 440.417 352.57 439.963 352.27C439.509 351.968 439.153 351.541 438.897 350.991C438.64 350.438 438.512 349.784 438.512 349.03C438.512 348.283 438.64 347.634 438.897 347.084C439.153 346.534 439.51 346.109 439.968 345.809C440.425 345.509 440.953 345.359 441.553 345.359C442.016 345.359 442.382 345.437 442.651 345.591C442.923 345.743 443.13 345.916 443.272 346.11C443.418 346.302 443.53 346.459 443.611 346.583H443.704V343.079H444.797V352.572H443.741V351.478H443.611C443.53 351.608 443.416 351.771 443.268 351.969C443.119 352.164 442.908 352.338 442.633 352.493C442.358 352.644 441.992 352.72 441.534 352.72ZM441.683 351.737C442.121 351.737 442.492 351.623 442.795 351.394C443.098 351.163 443.328 350.843 443.486 350.435C443.643 350.024 443.722 349.55 443.722 349.012C443.722 348.48 443.645 348.015 443.49 347.617C443.336 347.215 443.107 346.903 442.804 346.68C442.501 346.455 442.128 346.342 441.683 346.342C441.219 346.342 440.833 346.461 440.524 346.699C440.218 346.934 439.988 347.254 439.833 347.658C439.682 348.06 439.606 348.511 439.606 349.012C439.606 349.519 439.683 349.979 439.838 350.393C439.995 350.804 440.227 351.132 440.533 351.376C440.842 351.617 441.225 351.737 441.683 351.737ZM450.772 352.572V343.079H453.98C454.721 343.079 455.33 343.206 455.806 343.459C456.282 343.709 456.634 344.054 456.863 344.493C457.092 344.931 457.206 345.43 457.206 345.99C457.206 346.549 457.092 347.045 456.863 347.478C456.634 347.91 456.284 348.25 455.811 348.497C455.338 348.742 454.734 348.864 453.998 348.864H451.403V347.825H453.961C454.468 347.825 454.876 347.751 455.185 347.603C455.497 347.454 455.723 347.244 455.862 346.972C456.004 346.697 456.075 346.37 456.075 345.99C456.075 345.61 456.004 345.277 455.862 344.993C455.72 344.709 455.492 344.489 455.18 344.335C454.868 344.177 454.456 344.099 453.943 344.099H451.922V352.572H450.772ZM455.241 348.307L457.577 352.572H456.242L453.943 348.307H455.241ZM461.882 352.72C461.196 352.72 460.604 352.569 460.106 352.266C459.612 351.96 459.23 351.533 458.962 350.987C458.696 350.436 458.563 349.797 458.563 349.068C458.563 348.338 458.696 347.696 458.962 347.139C459.23 346.58 459.604 346.144 460.083 345.832C460.565 345.517 461.128 345.359 461.77 345.359C462.141 345.359 462.507 345.421 462.869 345.545C463.231 345.668 463.56 345.869 463.856 346.147C464.153 346.422 464.389 346.787 464.566 347.241C464.742 347.696 464.83 348.255 464.83 348.919V349.383H459.342V348.437H463.717C463.717 348.035 463.637 347.677 463.476 347.362C463.319 347.047 463.093 346.798 462.8 346.616C462.509 346.433 462.166 346.342 461.77 346.342C461.335 346.342 460.958 346.45 460.639 346.666C460.324 346.88 460.082 347.158 459.912 347.501C459.742 347.844 459.657 348.212 459.657 348.604V349.234C459.657 349.772 459.75 350.228 459.935 350.602C460.123 350.973 460.385 351.255 460.718 351.45C461.052 351.642 461.44 351.737 461.882 351.737C462.169 351.737 462.429 351.697 462.66 351.617C462.895 351.533 463.098 351.41 463.268 351.246C463.438 351.079 463.569 350.872 463.662 350.625L464.718 350.922C464.607 351.28 464.42 351.595 464.158 351.867C463.895 352.136 463.57 352.346 463.184 352.498C462.798 352.646 462.364 352.72 461.882 352.72ZM472.099 345.452L469.466 352.572H468.354L465.721 345.452H466.907L468.873 351.126H468.947L470.912 345.452H472.099ZM476.273 352.72C475.587 352.72 474.995 352.569 474.498 352.266C474.003 351.96 473.622 351.533 473.353 350.987C473.087 350.436 472.954 349.797 472.954 349.068C472.954 348.338 473.087 347.696 473.353 347.139C473.622 346.58 473.996 346.144 474.474 345.832C474.957 345.517 475.519 345.359 476.162 345.359C476.533 345.359 476.899 345.421 477.26 345.545C477.622 345.668 477.951 345.869 478.248 346.147C478.544 346.422 478.781 346.787 478.957 347.241C479.133 347.696 479.221 348.255 479.221 348.919V349.383H473.733V348.437H478.109C478.109 348.035 478.028 347.677 477.867 347.362C477.71 347.047 477.484 346.798 477.191 346.616C476.9 346.433 476.557 346.342 476.162 346.342C475.726 346.342 475.349 346.45 475.031 346.666C474.716 346.88 474.473 347.158 474.303 347.501C474.133 347.844 474.048 348.212 474.048 348.604V349.234C474.048 349.772 474.141 350.228 474.326 350.602C474.515 350.973 474.776 351.255 475.11 351.45C475.443 351.642 475.831 351.737 476.273 351.737C476.56 351.737 476.82 351.697 477.052 351.617C477.287 351.533 477.489 351.41 477.659 351.246C477.829 351.079 477.96 350.872 478.053 350.625L479.11 350.922C478.998 351.28 478.812 351.595 478.549 351.867C478.286 352.136 477.962 352.346 477.575 352.498C477.189 352.646 476.755 352.72 476.273 352.72ZM481.979 348.289V352.572H480.885V345.452H481.942V346.565H482.035C482.201 346.203 482.455 345.912 482.795 345.693C483.135 345.471 483.573 345.359 484.111 345.359C484.593 345.359 485.015 345.458 485.377 345.656C485.738 345.851 486.019 346.147 486.22 346.546C486.421 346.942 486.521 347.442 486.521 348.048V352.572H485.428V348.122C485.428 347.563 485.282 347.127 484.992 346.815C484.701 346.5 484.303 346.342 483.796 346.342C483.447 346.342 483.135 346.418 482.86 346.569C482.588 346.721 482.373 346.942 482.215 347.232C482.058 347.522 481.979 347.875 481.979 348.289ZM493.007 349.661V345.452H494.101V352.572H493.007V351.367H492.933C492.766 351.728 492.507 352.036 492.154 352.289C491.802 352.539 491.357 352.664 490.819 352.664C490.374 352.664 489.979 352.567 489.633 352.372C489.287 352.175 489.015 351.878 488.817 351.482C488.619 351.084 488.52 350.582 488.52 349.976V345.452H489.614V349.902C489.614 350.421 489.76 350.835 490.05 351.144C490.344 351.453 490.717 351.608 491.172 351.608C491.444 351.608 491.72 351.538 492.001 351.399C492.286 351.26 492.524 351.047 492.715 350.759C492.91 350.472 493.007 350.106 493.007 349.661ZM499.09 352.72C498.404 352.72 497.812 352.569 497.315 352.266C496.82 351.96 496.439 351.533 496.17 350.987C495.904 350.436 495.771 349.797 495.771 349.068C495.771 348.338 495.904 347.696 496.17 347.139C496.439 346.58 496.812 346.144 497.291 345.832C497.773 345.517 498.336 345.359 498.979 345.359C499.349 345.359 499.716 345.421 500.077 345.545C500.439 345.668 500.768 345.869 501.064 346.147C501.361 346.422 501.598 346.787 501.774 347.241C501.95 347.696 502.038 348.255 502.038 348.919V349.383H496.55V348.437H500.925C500.925 348.035 500.845 347.677 500.684 347.362C500.527 347.047 500.301 346.798 500.008 346.616C499.717 346.433 499.374 346.342 498.979 346.342C498.543 346.342 498.166 346.45 497.848 346.666C497.532 346.88 497.29 347.158 497.12 347.501C496.95 347.844 496.865 348.212 496.865 348.604V349.234C496.865 349.772 496.958 350.228 497.143 350.602C497.332 350.973 497.593 351.255 497.926 351.45C498.26 351.642 498.648 351.737 499.09 351.737C499.377 351.737 499.637 351.697 499.869 351.617C500.103 351.533 500.306 351.41 500.476 351.246C500.646 351.079 500.777 350.872 500.87 350.625L501.927 350.922C501.815 351.28 501.628 351.595 501.366 351.867C501.103 352.136 500.779 352.346 500.392 352.498C500.006 352.646 499.572 352.72 499.09 352.72Z" fill="#181D27"/>
<path d="M385.899 387.814V385.437C382.795 384.877 381.144 382.639 381.144 379.842L385.06 379.563C385.06 381.157 385.899 381.94 387.577 381.94C389.144 381.94 389.955 381.101 389.955 380.122C389.955 377.465 381.284 379.003 381.284 372.71C381.284 370.305 383.102 368.403 385.899 367.815V365.438H389.535V367.955C392.053 368.542 393.731 370.668 393.731 373.269L389.815 373.549C389.815 372.123 389.004 371.312 387.577 371.312C386.319 371.312 385.48 372.123 385.48 372.99C385.48 375.507 394.15 373.969 394.15 380.402C394.15 382.751 392.332 384.905 389.535 385.437V387.814H385.899ZM398.916 385.437V372.85L397.098 374.109L395.14 371.032L399.755 367.815H402.972V385.437H398.916ZM409.537 379.982C409.537 381.241 410.488 382.22 412.055 382.22C413.621 382.22 414.572 381.241 414.572 379.982C414.572 378.724 413.621 377.745 412.055 377.745C410.488 377.745 409.537 378.724 409.537 379.982ZM410.097 372.71C410.097 373.689 410.936 374.388 412.055 374.388C413.174 374.388 414.013 373.689 414.013 372.71C414.013 371.731 413.174 371.032 412.055 371.032C410.796 371.032 410.097 371.843 410.097 372.71ZM405.482 380.262C405.482 378.696 406.181 377.633 406.88 376.934C407.3 376.514 407.747 376.178 408.279 375.927C407.887 375.675 407.524 375.395 407.216 375.06C406.684 374.472 406.181 373.633 406.181 372.43C406.181 369.913 408.391 367.675 412.055 367.675C415.719 367.675 417.929 369.913 417.929 372.43C417.929 373.633 417.397 374.472 416.866 375.06C416.558 375.395 416.194 375.675 415.831 375.927C416.362 376.178 416.81 376.514 417.229 376.934C417.929 377.633 418.628 378.696 418.628 380.262C418.628 383.059 416.082 385.576 412.055 385.576C408.027 385.576 405.482 383.059 405.482 380.262ZM420.873 385.437V367.815H424.649V377.745L428.145 372.57H432.481L428.145 378.724L432.9 385.437H428.565L424.649 379.703V385.437H420.873Z" fill="#181D27"/>
<path d="M383.496 406.07V400.698H384.564V406.07H383.496ZM381.346 403.916V402.852H386.718V403.916H381.346ZM391.225 407.548C390.727 407.548 390.28 407.452 389.882 407.262C389.488 407.068 389.172 406.803 388.937 406.467C388.701 406.131 388.575 405.747 388.559 405.315H389.751C389.78 405.665 389.935 405.952 390.216 406.177C390.497 406.402 390.833 406.515 391.225 406.515C391.538 406.515 391.814 406.443 392.055 406.3C392.299 406.155 392.49 405.955 392.628 405.7C392.768 405.446 392.838 405.156 392.838 404.83C392.838 404.499 392.767 404.204 392.624 403.944C392.481 403.685 392.283 403.481 392.032 403.332C391.783 403.184 391.497 403.109 391.173 403.106C390.927 403.106 390.679 403.148 390.431 403.233C390.182 403.318 389.98 403.429 389.827 403.567L388.702 403.4L389.159 399.3H393.633V400.353H390.18L389.922 402.629H389.97C390.129 402.476 390.339 402.347 390.601 402.244C390.866 402.14 391.15 402.089 391.452 402.089C391.947 402.089 392.388 402.207 392.775 402.442C393.164 402.678 393.47 403 393.692 403.408C393.918 403.813 394.029 404.279 394.026 404.806C394.029 405.333 393.91 405.804 393.669 406.217C393.43 406.63 393.099 406.956 392.675 407.194C392.254 407.43 391.771 407.548 391.225 407.548ZM399.724 405.911V405.482C399.724 405.175 399.788 404.894 399.915 404.639C400.045 404.383 400.233 404.177 400.479 404.024C400.728 403.867 401.029 403.789 401.381 403.789C401.741 403.789 402.043 403.866 402.287 404.02C402.531 404.173 402.715 404.379 402.839 404.636C402.966 404.892 403.03 405.175 403.03 405.482V405.911C403.03 406.218 402.966 406.5 402.839 406.757C402.712 407.011 402.525 407.217 402.279 407.373C402.035 407.527 401.736 407.603 401.381 407.603C401.024 407.603 400.722 407.527 400.475 407.373C400.229 407.217 400.042 407.011 399.915 406.757C399.788 406.5 399.724 406.218 399.724 405.911ZM400.65 405.482V405.911C400.65 406.139 400.704 406.345 400.813 406.531C400.922 406.716 401.111 406.809 401.381 406.809C401.649 406.809 401.835 406.716 401.941 406.531C402.047 406.345 402.1 406.139 402.1 405.911V405.482C402.1 405.254 402.049 405.047 401.945 404.862C401.845 404.677 401.657 404.584 401.381 404.584C401.116 404.584 400.928 404.677 400.817 404.862C400.706 405.047 400.65 405.254 400.65 405.482ZM395.632 401.254V400.825C395.632 400.518 395.696 400.236 395.823 399.979C395.953 399.722 396.141 399.517 396.387 399.363C396.636 399.21 396.937 399.133 397.289 399.133C397.649 399.133 397.951 399.21 398.195 399.363C398.439 399.517 398.623 399.722 398.747 399.979C398.872 400.236 398.934 400.518 398.934 400.825V401.254C398.934 401.562 398.87 401.844 398.743 402.101C398.619 402.355 398.433 402.56 398.187 402.717C397.943 402.87 397.644 402.947 397.289 402.947C396.929 402.947 396.625 402.87 396.379 402.717C396.135 402.56 395.95 402.355 395.823 402.101C395.696 401.844 395.632 401.562 395.632 401.254ZM396.562 400.825V401.254C396.562 401.482 396.615 401.689 396.721 401.874C396.829 402.06 397.019 402.152 397.289 402.152C397.554 402.152 397.739 402.06 397.845 401.874C397.954 401.689 398.008 401.482 398.008 401.254V400.825C398.008 400.598 397.956 400.391 397.853 400.206C397.75 400.02 397.562 399.927 397.289 399.927C397.024 399.927 396.836 400.02 396.725 400.206C396.616 400.391 396.562 400.598 396.562 400.825ZM396.01 407.437L401.604 399.3H402.553L396.959 407.437H396.01ZM409.042 399.3V407.437H407.815V399.3H409.042ZM411.923 403.813V407.437H410.735V401.334H411.875V402.327H411.951C412.091 402.004 412.311 401.744 412.61 401.548C412.912 401.352 413.292 401.254 413.75 401.254C414.166 401.254 414.53 401.342 414.843 401.517C415.155 401.689 415.398 401.946 415.57 402.287C415.742 402.629 415.828 403.052 415.828 403.555V407.437H414.64V403.698C414.64 403.256 414.525 402.91 414.295 402.661C414.064 402.409 413.748 402.283 413.345 402.283C413.07 402.283 412.825 402.343 412.61 402.462C412.398 402.581 412.23 402.756 412.105 402.987C411.984 403.214 411.923 403.49 411.923 403.813ZM419.992 407.56C419.401 407.56 418.893 407.426 418.466 407.158C418.043 406.888 417.717 406.516 417.489 406.042C417.261 405.568 417.147 405.025 417.147 404.413C417.147 403.793 417.264 403.246 417.497 402.772C417.73 402.295 418.058 401.923 418.482 401.656C418.906 401.388 419.405 401.254 419.98 401.254C420.444 401.254 420.857 401.341 421.22 401.513C421.583 401.682 421.875 401.921 422.098 402.228C422.323 402.535 422.457 402.894 422.499 403.305H421.343C421.279 403.018 421.134 402.772 420.906 402.566C420.681 402.359 420.379 402.256 420 402.256C419.669 402.256 419.379 402.343 419.13 402.518C418.884 402.69 418.691 402.936 418.554 403.257C418.416 403.575 418.347 403.951 418.347 404.385C418.347 404.83 418.415 405.214 418.55 405.537C418.685 405.861 418.876 406.111 419.122 406.288C419.371 406.466 419.664 406.555 420 406.555C420.225 406.555 420.429 406.513 420.612 406.431C420.797 406.347 420.952 406.226 421.077 406.07C421.204 405.914 421.293 405.725 421.343 405.506H422.499C422.457 405.9 422.328 406.253 422.114 406.562C421.899 406.872 421.612 407.116 421.251 407.293C420.894 407.471 420.474 407.56 419.992 407.56ZM423.769 407.437V401.334H424.918V402.303H424.981C425.092 401.975 425.288 401.717 425.569 401.529C425.853 401.338 426.173 401.243 426.531 401.243C426.605 401.243 426.692 401.245 426.793 401.25C426.896 401.256 426.977 401.262 427.035 401.27V402.407C426.988 402.393 426.903 402.379 426.781 402.363C426.659 402.344 426.537 402.335 426.415 402.335C426.135 402.335 425.884 402.395 425.665 402.514C425.447 402.63 425.275 402.793 425.148 403.003C425.021 403.209 424.957 403.445 424.957 403.71V407.437H423.769ZM430.475 407.56C429.874 407.56 429.356 407.431 428.921 407.174C428.49 406.915 428.156 406.551 427.92 406.082C427.687 405.61 427.571 405.058 427.571 404.425C427.571 403.8 427.687 403.249 427.92 402.772C428.156 402.295 428.484 401.923 428.906 401.656C429.329 401.388 429.825 401.254 430.391 401.254C430.736 401.254 431.07 401.311 431.393 401.425C431.716 401.539 432.006 401.718 432.263 401.962C432.52 402.205 432.722 402.522 432.871 402.911C433.019 403.298 433.093 403.768 433.093 404.322V404.743H428.242V403.853H431.929C431.929 403.54 431.865 403.263 431.738 403.022C431.611 402.779 431.432 402.587 431.202 402.446C430.974 402.306 430.707 402.236 430.399 402.236C430.066 402.236 429.774 402.318 429.525 402.482C429.279 402.644 429.088 402.856 428.953 403.118C428.821 403.377 428.755 403.659 428.755 403.964V404.659C428.755 405.067 428.826 405.414 428.969 405.7C429.115 405.986 429.317 406.205 429.577 406.356C429.837 406.504 430.14 406.578 430.487 406.578C430.712 406.578 430.917 406.547 431.103 406.483C431.288 406.417 431.448 406.319 431.583 406.189C431.718 406.059 431.822 405.899 431.893 405.708L433.018 405.911C432.928 406.242 432.766 406.532 432.533 406.781C432.303 407.027 432.012 407.219 431.663 407.357C431.316 407.492 430.92 407.56 430.475 407.56ZM436.187 407.572C435.8 407.572 435.451 407.5 435.138 407.357C434.826 407.211 434.578 407.001 434.395 406.725C434.215 406.45 434.125 406.112 434.125 405.712C434.125 405.368 434.191 405.084 434.324 404.862C434.456 404.639 434.635 404.463 434.86 404.334C435.085 404.204 435.337 404.106 435.615 404.04C435.893 403.973 436.177 403.923 436.465 403.889C436.831 403.846 437.127 403.812 437.355 403.785C437.583 403.756 437.749 403.71 437.852 403.646C437.955 403.583 438.007 403.479 438.007 403.336V403.309C438.007 402.962 437.909 402.693 437.713 402.502C437.519 402.311 437.231 402.216 436.847 402.216C436.447 402.216 436.132 402.305 435.901 402.482C435.673 402.657 435.516 402.852 435.428 403.066L434.312 402.812C434.444 402.441 434.638 402.142 434.892 401.914C435.149 401.684 435.444 401.517 435.778 401.413C436.112 401.307 436.463 401.254 436.831 401.254C437.074 401.254 437.333 401.284 437.606 401.342C437.881 401.397 438.138 401.501 438.376 401.652C438.617 401.803 438.815 402.019 438.968 402.299C439.122 402.577 439.199 402.939 439.199 403.384V407.437H438.039V406.602H437.991C437.914 406.756 437.799 406.907 437.645 407.055C437.492 407.203 437.294 407.327 437.053 407.425C436.812 407.523 436.524 407.572 436.187 407.572ZM436.445 406.618C436.774 406.618 437.055 406.553 437.288 406.423C437.523 406.294 437.702 406.124 437.824 405.915C437.949 405.703 438.011 405.476 438.011 405.235V404.449C437.968 404.491 437.886 404.531 437.764 404.568C437.645 404.602 437.509 404.633 437.355 404.659C437.202 404.683 437.052 404.706 436.906 404.727C436.761 404.745 436.639 404.761 436.541 404.775C436.31 404.804 436.1 404.853 435.909 404.922C435.721 404.99 435.57 405.09 435.456 405.22C435.345 405.347 435.289 405.516 435.289 405.728C435.289 406.022 435.398 406.245 435.615 406.396C435.832 406.544 436.109 406.618 436.445 406.618ZM445.354 402.824L444.277 403.015C444.232 402.877 444.161 402.746 444.063 402.621C443.967 402.497 443.838 402.395 443.673 402.315C443.509 402.236 443.304 402.196 443.058 402.196C442.721 402.196 442.44 402.272 442.215 402.423C441.99 402.571 441.878 402.763 441.878 402.999C441.878 403.203 441.953 403.367 442.104 403.491C442.255 403.616 442.499 403.718 442.835 403.797L443.804 404.02C444.366 404.149 444.785 404.349 445.06 404.62C445.335 404.89 445.473 405.241 445.473 405.672C445.473 406.038 445.367 406.364 445.155 406.65C444.946 406.933 444.653 407.156 444.277 407.317C443.904 407.479 443.471 407.56 442.978 407.56C442.295 407.56 441.737 407.414 441.305 407.123C440.874 406.829 440.609 406.411 440.511 405.871L441.659 405.696C441.731 405.996 441.878 406.222 442.1 406.376C442.323 406.527 442.613 406.602 442.97 406.602C443.36 406.602 443.671 406.521 443.904 406.36C444.137 406.196 444.253 405.996 444.253 405.76C444.253 405.569 444.182 405.409 444.039 405.279C443.899 405.149 443.683 405.051 443.391 404.985L442.358 404.759C441.789 404.629 441.368 404.422 441.095 404.139C440.825 403.855 440.69 403.497 440.69 403.062C440.69 402.702 440.79 402.387 440.992 402.117C441.193 401.846 441.471 401.636 441.826 401.485C442.181 401.331 442.587 401.254 443.046 401.254C443.705 401.254 444.224 401.397 444.603 401.684C444.982 401.967 445.232 402.347 445.354 402.824ZM449.409 407.56C448.808 407.56 448.29 407.431 447.856 407.174C447.424 406.915 447.091 406.551 446.855 406.082C446.622 405.61 446.505 405.058 446.505 404.425C446.505 403.8 446.622 403.249 446.855 402.772C447.091 402.295 447.419 401.923 447.84 401.656C448.264 401.388 448.759 401.254 449.326 401.254C449.67 401.254 450.004 401.311 450.327 401.425C450.65 401.539 450.94 401.718 451.197 401.962C451.454 402.205 451.657 402.522 451.805 402.911C451.954 403.298 452.028 403.768 452.028 404.322V404.743H447.177V403.853H450.864C450.864 403.54 450.8 403.263 450.673 403.022C450.546 402.779 450.367 402.587 450.137 402.446C449.909 402.306 449.641 402.236 449.334 402.236C449 402.236 448.709 402.318 448.46 402.482C448.214 402.644 448.023 402.856 447.888 403.118C447.755 403.377 447.689 403.659 447.689 403.964V404.659C447.689 405.067 447.761 405.414 447.904 405.7C448.049 405.986 448.252 406.205 448.512 406.356C448.771 406.504 449.074 406.578 449.421 406.578C449.647 406.578 449.852 406.547 450.037 406.483C450.223 406.417 450.383 406.319 450.518 406.189C450.653 406.059 450.756 405.899 450.828 405.708L451.952 405.911C451.862 406.242 451.701 406.532 451.468 406.781C451.237 407.027 450.947 407.219 450.597 407.357C450.25 407.492 449.854 407.56 449.409 407.56Z" fill="#F97066"/>
<g clip-path="url(#clip1_23348_2551)">
<path d="M510.773 377.597L504.79 386.803C504.476 387.287 504.308 387.851 504.308 388.429V416.34C504.308 417.988 505.644 419.324 507.292 419.324H581.506C583.154 419.324 584.49 417.988 584.49 416.34V369.95C584.49 369.149 584.181 368.361 583.547 367.872C580.11 365.219 577.565 367.228 576.667 368.698L570.684 382.535C569.748 384.7 566.788 384.974 565.471 383.017L561.781 377.536C560.538 375.689 557.783 375.805 556.7 377.75L553.678 383.174C552.579 385.148 549.77 385.23 548.556 383.325L547.006 380.893L543.095 373.502L538.934 365.299C537.721 362.907 534.214 363.206 533.423 365.768L531.431 372.22C531.179 373.035 530.59 373.704 529.813 374.057L527.184 375.249C526.516 375.552 525.982 376.091 525.686 376.762L523.519 381.677C522.495 383.998 519.226 384.064 518.11 381.786L517.672 380.893L515.863 377.739C514.753 375.803 511.989 375.726 510.773 377.597Z" fill="url(#paint14_linear_23348_2551)" stroke="#FF542A" stroke-width="1.04422"/>
</g>
</g>
</g>
<defs>
<filter id="filter0_d_23348_2551" x="301.988" y="260.255" width="359.884" height="230.498" filterUnits="userSpaceOnUse" color-interpolation-filters="sRGB">
<feFlood flood-opacity="0" result="BackgroundImageFix"/>
<feColorMatrix in="SourceAlpha" type="matrix" values="0 0 0 0 0 0 0 0 0 0 0 0 0 0 0 0 0 0 127 0" result="hardAlpha"/>
<feOffset/>
<feGaussianBlur stdDeviation="29.835"/>
<feColorMatrix type="matrix" values="0 0 0 0 0 0 0 0 0 0 0 0 0 0 0 0 0 0 0.16 0"/>
<feBlend mode="normal" in2="BackgroundImageFix" result="effect1_dropShadow_23348_2551"/>
<feBlend mode="normal" in="SourceGraphic" in2="effect1_dropShadow_23348_2551" result="shape"/>
</filter>
<linearGradient id="paint0_linear_23348_2551" x1="0" y1="250" x2="645" y2="250" gradientUnits="userSpaceOnUse">
<stop stop-color="#DBEAFE"/>
<stop offset="1" stop-color="#F3E8FF"/>
</linearGradient>
<linearGradient id="paint1_linear_23348_2551" x1="453.96" y1="85.8409" x2="373.782" y2="129.502" gradientUnits="userSpaceOnUse">
<stop stop-color="#FE5D39"/>
<stop offset="0.48" stop-color="#FF2380"/>
<stop offset="1" stop-color="#DF64CC"/>
</linearGradient>
<linearGradient id="paint2_linear_23348_2551" x1="109.675" y1="270.919" x2="131.313" y2="274.914" gradientUnits="userSpaceOnUse">
<stop stop-color="#B7B7B7"/>
<stop offset="1" stop-color="#EFEFEF"/>
</linearGradient>
<linearGradient id="paint3_linear_23348_2551" x1="133.233" y1="260.542" x2="120.28" y2="260.806" gradientUnits="userSpaceOnUse">
<stop stop-color="#FE5D39"/>
<stop offset="0.48" stop-color="#FF2380"/>
<stop offset="1" stop-color="#DF64CC"/>
</linearGradient>
<linearGradient id="paint4_linear_23348_2551" x1="173.347" y1="286.943" x2="194.55" y2="291.932" gradientUnits="userSpaceOnUse">
<stop stop-color="#B7B7B7"/>
<stop offset="1" stop-color="#EFEFEF"/>
</linearGradient>
<linearGradient id="paint5_linear_23348_2551" x1="196.906" y1="285.825" x2="183.958" y2="286.202" gradientUnits="userSpaceOnUse">
<stop stop-color="#FE5D39"/>
<stop offset="0.48" stop-color="#FF2380"/>
<stop offset="1" stop-color="#DF64CC"/>
</linearGradient>
<linearGradient id="paint6_linear_23348_2551" x1="237.019" y1="226.281" x2="259.102" y2="228.829" gradientUnits="userSpaceOnUse">
<stop stop-color="#B7B7B7"/>
<stop offset="1" stop-color="#EFEFEF"/>
</linearGradient>
<linearGradient id="paint7_linear_23348_2551" x1="260.578" y1="228.565" x2="247.623" y2="228.757" gradientUnits="userSpaceOnUse">
<stop stop-color="#FE5D39"/>
<stop offset="0.48" stop-color="#FF2380"/>
<stop offset="1" stop-color="#DF64CC"/>
</linearGradient>
<linearGradient id="paint8_linear_23348_2551" x1="300.419" y1="226.281" x2="322.501" y2="228.829" gradientUnits="userSpaceOnUse">
<stop stop-color="#B7B7B7"/>
<stop offset="1" stop-color="#EFEFEF"/>
</linearGradient>
<linearGradient id="paint9_linear_23348_2551" x1="323.978" y1="254.592" x2="311.024" y2="254.839" gradientUnits="userSpaceOnUse">
<stop stop-color="#FE5D39"/>
<stop offset="0.48" stop-color="#FF2380"/>
<stop offset="1" stop-color="#DF64CC"/>
</linearGradient>
<linearGradient id="paint10_linear_23348_2551" x1="365.683" y1="249.173" x2="387.612" y2="252.305" gradientUnits="userSpaceOnUse">
<stop stop-color="#B7B7B7"/>
<stop offset="1" stop-color="#EFEFEF"/>
</linearGradient>
<linearGradient id="paint11_linear_23348_2551" x1="389.242" y1="243.438" x2="376.287" y2="243.658" gradientUnits="userSpaceOnUse">
<stop stop-color="#FE5D39"/>
<stop offset="0.48" stop-color="#FF2380"/>
<stop offset="1" stop-color="#DF64CC"/>
</linearGradient>
<linearGradient id="paint12_linear_23348_2551" x1="429.082" y1="212.547" x2="451.222" y2="214.837" gradientUnits="userSpaceOnUse">
<stop stop-color="#B7B7B7"/>
<stop offset="1" stop-color="#EFEFEF"/>
</linearGradient>
<linearGradient id="paint13_linear_23348_2551" x1="452.641" y1="204.769" x2="439.685" y2="204.928" gradientUnits="userSpaceOnUse">
<stop stop-color="#FE5D39"/>
<stop offset="0.48" stop-color="#FF2380"/>
<stop offset="1" stop-color="#DF64CC"/>
</linearGradient>
<linearGradient id="paint14_linear_23348_2551" x1="543.421" y1="360.938" x2="545.096" y2="396.026" gradientUnits="userSpaceOnUse">
<stop stop-color="#FF542A" stop-opacity="0.56"/>
<stop offset="1" stop-color="#FF542A" stop-opacity="0"/>
</linearGradient>
<clipPath id="clip0_23348_2551">
<path d="M0 16C0 7.16345 7.16344 0 16 0H629C637.837 0 645 7.16344 645 16V484C645 492.837 637.837 500 629 500H16C7.16344 500 0 492.837 0 484V16Z" fill="white"/>
</clipPath>
<clipPath id="clip1_23348_2551">
<rect width="78.3168" height="52.2112" fill="white" transform="translate(505.239 349.398)"/>
</clipPath>
</defs>
</svg>
