<svg width="20" height="20" viewBox="0 0 20 20" fill="none" xmlns="http://www.w3.org/2000/svg">
<path d="M3.67247 2.84484C3.29059 2.73253 3.09965 2.67637 2.96965 2.72483C2.85636 2.76706 2.767 2.85642 2.72477 2.96971C2.67631 3.09972 2.73246 3.29065 2.84478 3.67253L6.3497 15.5892C6.45407 15.9441 6.50626 16.1215 6.61158 16.2039C6.70349 16.2758 6.82133 16.3058 6.93644 16.2868C7.06834 16.2649 7.19912 16.1341 7.46068 15.8725L9.99991 13.3333L13.6952 17.0286C13.8602 17.1936 13.9427 17.2761 14.0378 17.307C14.1215 17.3342 14.2117 17.3342 14.2953 17.307C14.3905 17.2761 14.473 17.1936 14.638 17.0286L17.0285 14.638C17.1935 14.473 17.276 14.3905 17.3069 14.2954C17.3341 14.2117 17.3341 14.1216 17.3069 14.0379C17.276 13.9427 17.1935 13.8602 17.0285 13.6952L13.3332 9.99997L15.8725 7.46074C16.134 7.19918 16.2648 7.06841 16.2867 6.9365C16.3058 6.82139 16.2757 6.70355 16.2039 6.61164C16.1215 6.50632 15.944 6.45413 15.5892 6.34976L3.67247 2.84484Z" stroke="#FF542A" stroke-width="2" stroke-linecap="round" stroke-linejoin="round"/>
</svg>
