<svg xmlns="http://www.w3.org/2000/svg" width="49" height="49" viewBox="0 0 49 49" fill="none">
  <path d="M13.5 13.5H13.52M35.5 13.5H35.52M13.5 35.5H13.52M26.5 26.5H26.52M35.5 35.5H35.52M34.5 42.5H42.5V34.5M28.5 33.5V42.5M42.5 28.5H33.5M31.7 20.5H39.3C40.4201 20.5 40.9802 20.5 41.408 20.282C41.7843 20.0903 42.0903 19.7843 42.282 19.408C42.5 18.9802 42.5 18.4201 42.5 17.3V9.7C42.5 8.5799 42.5 8.01984 42.282 7.59202C42.0903 7.21569 41.7843 6.90973 41.408 6.71799C40.9802 6.5 40.4201 6.5 39.3 6.5H31.7C30.5799 6.5 30.0198 6.5 29.592 6.71799C29.2157 6.90973 28.9097 7.21569 28.718 7.59202C28.5 8.01984 28.5 8.57989 28.5 9.7V17.3C28.5 18.4201 28.5 18.9802 28.718 19.408C28.9097 19.7843 29.2157 20.0903 29.592 20.282C30.0198 20.5 30.5799 20.5 31.7 20.5ZM9.7 20.5H17.3C18.4201 20.5 18.9802 20.5 19.408 20.282C19.7843 20.0903 20.0903 19.7843 20.282 19.408C20.5 18.9802 20.5 18.4201 20.5 17.3V9.7C20.5 8.5799 20.5 8.01984 20.282 7.59202C20.0903 7.21569 19.7843 6.90973 19.408 6.71799C18.9802 6.5 18.4201 6.5 17.3 6.5H9.7C8.5799 6.5 8.01984 6.5 7.59202 6.71799C7.21569 6.90973 6.90973 7.21569 6.71799 7.59202C6.5 8.01984 6.5 8.57989 6.5 9.7V17.3C6.5 18.4201 6.5 18.9802 6.71799 19.408C6.90973 19.7843 7.21569 20.0903 7.59202 20.282C8.01984 20.5 8.57989 20.5 9.7 20.5ZM9.7 42.5H17.3C18.4201 42.5 18.9802 42.5 19.408 42.282C19.7843 42.0903 20.0903 41.7843 20.282 41.408C20.5 40.9802 20.5 40.4201 20.5 39.3V31.7C20.5 30.5799 20.5 30.0198 20.282 29.592C20.0903 29.2157 19.7843 28.9097 19.408 28.718C18.9802 28.5 18.4201 28.5 17.3 28.5H9.7C8.5799 28.5 8.01984 28.5 7.59202 28.718C7.21569 28.9097 6.90973 29.2157 6.71799 29.592C6.5 30.0198 6.5 30.5799 6.5 31.7V39.3C6.5 40.4201 6.5 40.9802 6.71799 41.408C6.90973 41.7843 7.21569 42.0903 7.59202 42.282C8.01984 42.5 8.57989 42.5 9.7 42.5Z" stroke="white" stroke-width="3" stroke-linecap="round" stroke-linejoin="round"/>
</svg>