<svg xmlns="http://www.w3.org/2000/svg" width="18" height="20" viewBox="0 0 18 20" fill="none">
  <path d="M6.82925 16.1427L7.31629 17.238C7.46107 17.5641 7.69736 17.8412 7.99648 18.0356C8.2956 18.23 8.64472 18.3335 9.00148 18.3334C9.35824 18.3335 9.70735 18.23 10.0065 18.0356C10.3056 17.8412 10.5419 17.5641 10.6867 17.238L11.1737 16.1427C11.3471 15.754 11.6387 15.43 12.007 15.2168C12.3777 15.0029 12.8065 14.9119 13.232 14.9566L14.4237 15.0834C14.7784 15.1209 15.1364 15.0547 15.4543 14.8929C15.7721 14.731 16.0362 14.4803 16.2144 14.1714C16.3929 13.8626 16.478 13.5086 16.4592 13.1525C16.4405 12.7963 16.3188 12.4532 16.1089 12.1649L15.4033 11.1955C15.1521 10.8477 15.0179 10.4291 15.02 10.0001C15.0199 9.57224 15.1554 9.15537 15.407 8.80934L16.1126 7.8399C16.3225 7.55154 16.4442 7.20847 16.4629 6.85231C16.4817 6.49615 16.3966 6.1422 16.2181 5.83341C16.0399 5.52444 15.7758 5.27382 15.458 5.11194C15.1401 4.95005 14.7821 4.88386 14.4274 4.92138L13.2357 5.04823C12.8102 5.09292 12.3814 5.00185 12.0107 4.78804C11.6417 4.57363 11.35 4.24788 11.1774 3.85749L10.6867 2.76212C10.5419 2.43606 10.3056 2.15901 10.0065 1.96458C9.70735 1.77015 9.35824 1.66669 9.00148 1.66675C8.64472 1.66669 8.2956 1.77015 7.99648 1.96458C7.69736 2.15901 7.46107 2.43606 7.31629 2.76212L6.82925 3.85749C6.65669 4.24788 6.36498 4.57363 5.99592 4.78804C5.62527 5.00185 5.19648 5.09292 4.77092 5.04823L3.57555 4.92138C3.22082 4.88386 2.86283 4.95005 2.54498 5.11194C2.22713 5.27382 1.96306 5.52444 1.78481 5.83341C1.60633 6.1422 1.5213 6.49615 1.54003 6.85231C1.55877 7.20847 1.68047 7.55154 1.89036 7.8399L2.59592 8.80934C2.84754 9.15537 2.98304 9.57224 2.98296 10.0001C2.98304 10.4279 2.84754 10.8448 2.59592 11.1908L1.89036 12.1603C1.68047 12.4486 1.55877 12.7917 1.54003 13.1479C1.5213 13.504 1.60633 13.858 1.78481 14.1667C1.96324 14.4756 2.22733 14.726 2.54514 14.8879C2.86295 15.0498 3.22085 15.1161 3.57555 15.0788L4.76722 14.9519C5.19277 14.9072 5.62156 14.9983 5.99222 15.2121C6.36266 15.4259 6.65572 15.7517 6.82925 16.1427Z" stroke="white" stroke-width="2" stroke-linecap="round" stroke-linejoin="round"/>
  <path d="M8.99999 12.5001C10.3807 12.5001 11.5 11.3808 11.5 10.0001C11.5 8.61937 10.3807 7.50008 8.99999 7.50008C7.61927 7.50008 6.49999 8.61937 6.49999 10.0001C6.49999 11.3808 7.61927 12.5001 8.99999 12.5001Z" stroke="white" stroke-width="2" stroke-linecap="round" stroke-linejoin="round"/>
</svg>