<svg width="20" height="20" viewBox="0 0 20 20" fill="none" xmlns="http://www.w3.org/2000/svg">
<path d="M5.83333 10H10V14.1667M2.50833 10H2.5M6.675 14.1667H6.66667M10.0083 17.5H10M17.5083 10H17.5M2.5 14.1667H3.75M12.9167 10H14.5833M2.5 17.5H6.66667M10 1.66669V6.66669M14.6667 17.5H16.1667C16.6334 17.5 16.8667 17.5 17.045 17.4092C17.2018 17.3293 17.3293 17.2018 17.4092 17.045C17.5 16.8668 17.5 16.6334 17.5 16.1667V14.6667C17.5 14.2 17.5 13.9666 17.4092 13.7884C17.3293 13.6316 17.2018 13.5041 17.045 13.4242C16.8667 13.3334 16.6334 13.3334 16.1667 13.3334H14.6667C14.2 13.3334 13.9666 13.3334 13.7883 13.4242C13.6315 13.5041 13.5041 13.6316 13.4242 13.7884C13.3333 13.9666 13.3333 14.2 13.3333 14.6667V16.1667C13.3333 16.6334 13.3333 16.8668 13.4242 17.045C13.5041 17.2018 13.6315 17.3293 13.7883 17.4092C13.9666 17.5 14.2 17.5 14.6667 17.5ZM14.6667 6.66669H16.1667C16.6334 6.66669 16.8667 6.66669 17.045 6.57586C17.2018 6.49596 17.3293 6.36848 17.4092 6.21168C17.5 6.03342 17.5 5.80006 17.5 5.33335V3.83335C17.5 3.36664 17.5 3.13329 17.4092 2.95503C17.3293 2.79823 17.2018 2.67074 17.045 2.59085C16.8667 2.50002 16.6334 2.50002 16.1667 2.50002H14.6667C14.2 2.50002 13.9666 2.50002 13.7883 2.59085C13.6315 2.67074 13.5041 2.79823 13.4242 2.95503C13.3333 3.13329 13.3333 3.36664 13.3333 3.83335V5.33335C13.3333 5.80006 13.3333 6.03342 13.4242 6.21168C13.5041 6.36848 13.6315 6.49596 13.7883 6.57586C13.9666 6.66669 14.2 6.66669 14.6667 6.66669ZM3.83333 6.66669H5.33333C5.80004 6.66669 6.0334 6.66669 6.21166 6.57586C6.36846 6.49596 6.49594 6.36848 6.57584 6.21168C6.66667 6.03342 6.66667 5.80006 6.66667 5.33335V3.83335C6.66667 3.36664 6.66667 3.13329 6.57584 2.95503C6.49594 2.79823 6.36846 2.67074 6.21166 2.59085C6.0334 2.50002 5.80004 2.50002 5.33333 2.50002H3.83333C3.36662 2.50002 3.13327 2.50002 2.95501 2.59085C2.79821 2.67074 2.67072 2.79823 2.59083 2.95503C2.5 3.13329 2.5 3.36664 2.5 3.83335V5.33335C2.5 5.80006 2.5 6.03342 2.59083 6.21168C2.67072 6.36848 2.79821 6.49596 2.95501 6.57586C3.13327 6.66669 3.36662 6.66669 3.83333 6.66669Z" stroke="#FF542A" stroke-width="2" stroke-linecap="round" stroke-linejoin="round"/>
</svg>
