<svg width="25" height="24" viewBox="0 0 25 24" fill="none" xmlns="http://www.w3.org/2000/svg">
<path d="M9.5 12L11.5 14L16 9.5M7.83377 3.8187C8.6376 3.75455 9.40071 3.43846 10.0145 2.91542C11.4467 1.69486 13.5533 1.69486 14.9855 2.91542C15.5993 3.43846 16.3624 3.75455 17.1662 3.8187C19.0421 3.96839 20.5316 5.45794 20.6813 7.33377C20.7455 8.1376 21.0615 8.90071 21.5846 9.51447C22.8051 10.9467 22.8051 13.0533 21.5846 14.4855C21.0615 15.0993 20.7455 15.8624 20.6813 16.6662C20.5316 18.5421 19.0421 20.0316 17.1662 20.1813C16.3624 20.2455 15.5993 20.5615 14.9855 21.0846C13.5533 22.3051 11.4467 22.3051 10.0145 21.0846C9.40071 20.5615 8.6376 20.2455 7.83377 20.1813C5.95794 20.0316 4.46839 18.5421 4.3187 16.6662C4.25455 15.8624 3.93846 15.0993 3.41542 14.4855C2.19486 13.0533 2.19486 10.9467 3.41542 9.51447C3.93846 8.90071 4.25455 8.1376 4.3187 7.33377C4.46839 5.45794 5.95794 3.96839 7.83377 3.8187Z" stroke="#099250" stroke-width="2" stroke-linecap="round" stroke-linejoin="round"/>
</svg>
