<svg width="21" height="20" viewBox="0 0 21 20" fill="none" xmlns="http://www.w3.org/2000/svg">
<path d="M2.51677 10.5943C2.40328 10.4146 2.34654 10.3248 2.31477 10.1862C2.29091 10.0821 2.29091 9.91791 2.31477 9.81381C2.34654 9.67522 2.40328 9.58537 2.51677 9.40567C3.45461 7.92069 6.24617 4.16666 10.5003 4.16666C14.7545 4.16666 17.5461 7.92069 18.4839 9.40567C18.5974 9.58537 18.6541 9.67522 18.6859 9.81381C18.7098 9.91791 18.7098 10.0821 18.6859 10.1862C18.6541 10.3248 18.5974 10.4146 18.4839 10.5943C17.5461 12.0793 14.7545 15.8333 10.5003 15.8333C6.24617 15.8333 3.45461 12.0793 2.51677 10.5943Z" stroke="#FF542A" stroke-width="2" stroke-linecap="round" stroke-linejoin="round"/>
<path d="M10.5003 12.5C11.881 12.5 13.0003 11.3807 13.0003 9.99999C13.0003 8.61928 11.881 7.49999 10.5003 7.49999C9.11962 7.49999 8.00034 8.61928 8.00034 9.99999C8.00034 11.3807 9.11962 12.5 10.5003 12.5Z" stroke="#FF542A" stroke-width="2" stroke-linecap="round" stroke-linejoin="round"/>
</svg>
